<?xml version="1.0" encoding="utf-8"?>
<!-- Generator: Adobe Illustrator 24.3.0, SVG Export Plug-In . SVG Version: 6.00 Build 0)  -->
<svg version="1.1" id="Layer_1" xmlns="http://www.w3.org/2000/svg" xmlns:xlink="http://www.w3.org/1999/xlink" x="0px" y="0px"
	 viewBox="0 0 595.3 568.9" style="enable-background:new 0 0 595.3 568.9;" xml:space="preserve">
<style type="text/css">
	.st0{fill:#02991D;stroke:#02991D;stroke-width:0.75;stroke-miterlimit:10;}
	.st1{fill:#995902;stroke:#995902;stroke-width:0.75;stroke-miterlimit:10;}
	.st2{fill:url(#SVGID_1_);stroke:#FF0000;stroke-width:0.75;stroke-miterlimit:10;}
	.st3{fill:url(#SVGID_2_);stroke:#FF0000;stroke-width:0.75;stroke-miterlimit:10;}
	.st4{fill:url(#SVGID_3_);stroke:#FF0000;stroke-width:0.75;stroke-miterlimit:10;}
	.st5{fill:#02991D;stroke:#015E12;stroke-width:0.75;stroke-miterlimit:10;}
	.st6{fill:url(#SVGID_4_);stroke:#FF0000;stroke-width:0.75;stroke-miterlimit:10;}
	.st7{fill:url(#SVGID_5_);stroke:#FF0000;stroke-width:0.75;stroke-miterlimit:10;}
	.st8{fill:url(#SVGID_6_);stroke:#FF0000;stroke-width:0.75;stroke-miterlimit:10;}
	.st9{fill:url(#SVGID_7_);stroke:#FF0000;stroke-width:0.75;stroke-miterlimit:10;}
	.st10{fill:url(#SVGID_8_);stroke:#FF0000;stroke-width:0.75;stroke-miterlimit:10;}
	.st11{fill:url(#SVGID_9_);stroke:#FF0000;stroke-width:0.75;stroke-miterlimit:10;}
	.st12{fill:url(#SVGID_10_);stroke:#FF0000;stroke-width:0.75;stroke-miterlimit:10;}
	.st13{fill:url(#SVGID_11_);stroke:#FF0000;stroke-width:0.75;stroke-miterlimit:10;}
	.st14{fill:url(#SVGID_12_);stroke:#FF0000;stroke-width:0.75;stroke-miterlimit:10;}
	.st15{fill:url(#SVGID_13_);stroke:#FF0000;stroke-width:0.75;stroke-miterlimit:10;}
	.st16{fill:url(#SVGID_14_);stroke:#FF0000;stroke-width:0.75;stroke-miterlimit:10;}
	.st17{fill:url(#SVGID_15_);stroke:#FF0000;stroke-width:0.75;stroke-miterlimit:10;}
	.st18{fill:url(#SVGID_16_);stroke:#FF0000;stroke-width:0.75;stroke-miterlimit:10;}
	.st19{fill:url(#SVGID_17_);stroke:#FF0000;stroke-width:0.75;stroke-miterlimit:10;}
	.st20{fill:url(#SVGID_18_);stroke:#FF0000;stroke-width:0.75;stroke-miterlimit:10;}
	.st21{fill:url(#SVGID_19_);stroke:#FF0000;stroke-width:0.75;stroke-miterlimit:10;}
	.st22{fill:url(#SVGID_20_);stroke:#FF0000;stroke-width:0.75;stroke-miterlimit:10;}
	.st23{fill:url(#SVGID_21_);stroke:#FF0000;stroke-width:0.75;stroke-miterlimit:10;}
	.st24{fill:url(#SVGID_22_);stroke:#FF0000;stroke-width:0.75;stroke-miterlimit:10;}
	.st25{fill:url(#SVGID_23_);stroke:#FF0000;stroke-width:0.75;stroke-miterlimit:10;}
	.st26{fill:url(#SVGID_24_);stroke:#FF0000;stroke-width:0.75;stroke-miterlimit:10;}
	.st27{fill:url(#SVGID_25_);stroke:#FF0000;stroke-width:0.75;stroke-miterlimit:10;}
	.st28{fill:url(#SVGID_26_);stroke:#FF0000;stroke-width:0.75;stroke-miterlimit:10;}
	.st29{fill:url(#SVGID_27_);stroke:#FF0000;stroke-width:0.75;stroke-miterlimit:10;}
	.st30{fill:url(#SVGID_28_);stroke:#FF0000;stroke-width:0.75;stroke-miterlimit:10;}
	.st31{fill:url(#SVGID_29_);stroke:#FF0000;stroke-width:0.75;stroke-miterlimit:10;}
	.st32{fill:url(#SVGID_30_);stroke:#FF0000;stroke-width:0.75;stroke-miterlimit:10;}
	.st33{fill:url(#SVGID_31_);stroke:#FF0000;stroke-width:0.75;stroke-miterlimit:10;}
	.st34{fill:url(#SVGID_32_);stroke:#FF0000;stroke-width:0.75;stroke-miterlimit:10;}
	.st35{fill:url(#SVGID_33_);stroke:#FF0000;stroke-width:0.75;stroke-miterlimit:10;}
</style>
<g id="_x31_6:12_Rectangle">
</g>
<g id="Dummy_Text">
</g>
<g>
	<path class="st0" d="M154.4,208.6c-1.5,1.6-11.7,0.7-15.3-3.1c-1-1-0.4-1.2-2-7.5c-0.9-3.6-1.3-4.3-0.6-4.8c1.9-1.2,8.8,1.1,13,4.3
		c0,0,4.8,3.5,5.2,10.4C154.6,208.1,154.6,208.3,154.4,208.6z"/>
	<path class="st1" d="M151.2,260.8c-0.1,0.4,0.9,1,2.3,0.7c0.8-0.2,1.8-0.8,1.9-1.1C155.4,259.9,151.4,260.2,151.2,260.8z"/>
	<path class="st1" d="M153.4,214.9c-0.8-0.1,1.6-8.4,1.9-9.2c1.3-4.5,2-6.8,2.8-6.8c1.2,0,3.1,4.2,1.4,6.4c-0.4,0.6-0.5,0.6-1.6,1.4
		c-1.8,1.3-2.3,3.2-2.5,3.9c-0.4,1.3-0.1,1.9-0.8,3.1C154.2,214.2,153.7,215,153.4,214.9z"/>
	<linearGradient id="SVGID_1_" gradientUnits="userSpaceOnUse" x1="134.6066" y1="214.0848" x2="172.9873" y2="252.4655">
		<stop  offset="0" style="stop-color:#FFFE00"/>
		<stop  offset="5.030137e-02" style="stop-color:#FFF600"/>
		<stop  offset="0.1279" style="stop-color:#FFE100"/>
		<stop  offset="0.223" style="stop-color:#FFBD00"/>
		<stop  offset="0.3321" style="stop-color:#FF8C00"/>
		<stop  offset="0.4529" style="stop-color:#FF4D00"/>
		<stop  offset="0.5818" style="stop-color:#FF0200"/>
		<stop  offset="0.5844" style="stop-color:#FF0000"/>
	</linearGradient>
	<path class="st2" d="M181.9,236.8c-1.5,10.7-12,23.6-27.9,23.6c-0.5,0-1.7,0-3.2-0.2c-12-1.5-23.1-11.9-24.7-23.4
		c-1.6-11.4,6.1-24.2,14.6-25.3c3.9-0.5,5.8,1.8,13.4,1.7c7.3,0,9-2.2,12.8-1.7C175.3,212.5,183.5,225.3,181.9,236.8z"/>
	<linearGradient id="SVGID_2_" gradientUnits="userSpaceOnUse" x1="151.2568" y1="261.3928" x2="151.2568" y2="261.3928">
		<stop  offset="0" style="stop-color:#FFFE00"/>
		<stop  offset="5.030137e-02" style="stop-color:#FFF600"/>
		<stop  offset="0.1279" style="stop-color:#FFE100"/>
		<stop  offset="0.223" style="stop-color:#FFBD00"/>
		<stop  offset="0.3321" style="stop-color:#FF8C00"/>
		<stop  offset="0.4529" style="stop-color:#FF4D00"/>
		<stop  offset="0.5818" style="stop-color:#FF0200"/>
		<stop  offset="0.5844" style="stop-color:#FF0000"/>
	</linearGradient>
	<path class="st3" d="M151.3,261.4"/>
	<linearGradient id="SVGID_3_" gradientUnits="userSpaceOnUse" x1="150.1084" y1="260.907" x2="150.1084" y2="260.907">
		<stop  offset="0" style="stop-color:#FFFE00"/>
		<stop  offset="5.030137e-02" style="stop-color:#FFF600"/>
		<stop  offset="0.1279" style="stop-color:#FFE100"/>
		<stop  offset="0.223" style="stop-color:#FFBD00"/>
		<stop  offset="0.3321" style="stop-color:#FF8C00"/>
		<stop  offset="0.4529" style="stop-color:#FF4D00"/>
		<stop  offset="0.5818" style="stop-color:#FF0200"/>
		<stop  offset="0.5844" style="stop-color:#FF0000"/>
	</linearGradient>
	<path class="st4" d="M150.1,260.9"/>
	<path class="st5" d="M121.7,212.1"/>
</g>
<g>
	<path class="st0" d="M159.7,330.7c-1,2.4-12,5.4-17.5,2.6c-1.5-0.8-0.9-1.2-5.3-7.7c-2.5-3.7-3.2-4.4-2.6-5.2
		c1.5-2.1,9.8-2.2,15.5-0.3c0,0,6.5,2.1,10,9.7C159.7,330,159.9,330.3,159.7,330.7z"/>
	<path class="st1" d="M178.5,391.3c0,0.5,1.4,0.8,2.7-0.1c0.8-0.5,1.6-1.6,1.5-2C182.5,388.5,178.5,390.5,178.5,391.3z"/>
	<path class="st1" d="M161.3,338.3c-0.9,0.2-1.8-10.2-1.9-11.2c-0.5-5.7-0.8-8.5,0-8.8c1.3-0.5,5,3.5,4.2,6.7
		c-0.2,0.8-0.3,0.8-1.1,2.2c-1.3,2.2-1.1,4.6-1,5.4c0.2,1.6,0.7,2.2,0.5,3.8C161.9,337.1,161.7,338.2,161.3,338.3z"/>
	
		<linearGradient id="SVGID_4_" gradientUnits="userSpaceOnUse" x1="144.7389" y1="337.7533" x2="189.6041" y2="382.6185" gradientTransform="matrix(0.9366 -0.3504 0.3504 0.9366 -113.2147 80.2117)">
		<stop  offset="0" style="stop-color:#FFFE00"/>
		<stop  offset="5.030137e-02" style="stop-color:#FFF600"/>
		<stop  offset="0.1279" style="stop-color:#FFE100"/>
		<stop  offset="0.223" style="stop-color:#FFBD00"/>
		<stop  offset="0.3321" style="stop-color:#FF8C00"/>
		<stop  offset="0.4529" style="stop-color:#FF4D00"/>
		<stop  offset="0.5818" style="stop-color:#FF0200"/>
		<stop  offset="0.5844" style="stop-color:#FF0000"/>
	</linearGradient>
	<path class="st6" d="M200.7,351.8c3,12.8-2.6,31.5-19.5,37.9c-0.6,0.2-1.8,0.7-3.5,1.1c-13.3,3-29.5-4.3-36-16.8
		c-6.5-12.3-3.8-29.9,4.6-34.5c3.9-2.2,6.8-0.3,14.9-3.3c7.7-3,8.6-6.1,12.8-7C183.5,326.9,197.5,338.1,200.7,351.8z"/>
	
		<linearGradient id="SVGID_5_" gradientUnits="userSpaceOnUse" x1="164.3042" y1="394.2235" x2="164.3042" y2="394.2235" gradientTransform="matrix(0.9366 -0.3504 0.3504 0.9366 -113.2147 80.2117)">
		<stop  offset="0" style="stop-color:#FFFE00"/>
		<stop  offset="5.030137e-02" style="stop-color:#FFF600"/>
		<stop  offset="0.1279" style="stop-color:#FFE100"/>
		<stop  offset="0.223" style="stop-color:#FFBD00"/>
		<stop  offset="0.3321" style="stop-color:#FF8C00"/>
		<stop  offset="0.4529" style="stop-color:#FF4D00"/>
		<stop  offset="0.5818" style="stop-color:#FF0200"/>
		<stop  offset="0.5844" style="stop-color:#FF0000"/>
	</linearGradient>
	<path class="st7" d="M178.8,391.9"/>
	
		<linearGradient id="SVGID_6_" gradientUnits="userSpaceOnUse" x1="163.0076" y1="393.6348" x2="163.0076" y2="393.6348" gradientTransform="matrix(0.9366 -0.3504 0.3504 0.9366 -113.2147 80.2117)">
		<stop  offset="0" style="stop-color:#FFFE00"/>
		<stop  offset="5.030137e-02" style="stop-color:#FFF600"/>
		<stop  offset="0.1279" style="stop-color:#FFE100"/>
		<stop  offset="0.223" style="stop-color:#FFBD00"/>
		<stop  offset="0.3321" style="stop-color:#FF8C00"/>
		<stop  offset="0.4529" style="stop-color:#FF4D00"/>
		<stop  offset="0.5818" style="stop-color:#FF0200"/>
		<stop  offset="0.5844" style="stop-color:#FF0000"/>
	</linearGradient>
	<path class="st8" d="M177.4,391.8"/>
	<path class="st5" d="M126.7,347.6"/>
</g>
<g>
	<path class="st0" d="M327.7,320c-1.8,1.2-10.6-2.3-12.8-7c-0.6-1.3,0-1.3,0.3-7.8c0.2-3.8,0-4.6,0.8-4.8c2-0.6,7.5,3.4,10.4,7.5
		c0,0,3.2,4.7,1.7,11.5C328.1,319.5,328,319.8,327.7,320z"/>
	<path class="st1" d="M310,370.3c-0.2,0.3,0.5,1.3,1.8,1.3c0.8,0,1.9-0.3,2-0.6C314.1,370.4,310.4,369.8,310,370.3z"/>
	<path class="st1" d="M325,325.9c-0.7-0.3,3.8-7.8,4.3-8.5c2.5-4.1,3.7-6.1,4.4-5.9c1.1,0.3,1.6,4.9-0.6,6.6
		c-0.5,0.4-0.6,0.4-1.8,0.9c-2,0.8-3,2.6-3.4,3.2c-0.7,1.2-0.6,1.8-1.6,2.8C325.9,325.4,325.3,326.1,325,325.9z"/>
	
		<linearGradient id="SVGID_7_" gradientUnits="userSpaceOnUse" x1="303.2861" y1="325.1128" x2="340.6233" y2="362.45" gradientTransform="matrix(0.9606 0.278 -0.278 0.9606 106.498 -75.7054)">
		<stop  offset="0" style="stop-color:#FFFE00"/>
		<stop  offset="5.030137e-02" style="stop-color:#FFF600"/>
		<stop  offset="0.1279" style="stop-color:#FFE100"/>
		<stop  offset="0.223" style="stop-color:#FFBD00"/>
		<stop  offset="0.3321" style="stop-color:#FF8C00"/>
		<stop  offset="0.4529" style="stop-color:#FF4D00"/>
		<stop  offset="0.5818" style="stop-color:#FF0200"/>
		<stop  offset="0.5844" style="stop-color:#FF0000"/>
	</linearGradient>
	<path class="st9" d="M344.2,354.7c-4.4,10.1-17.4,20-31.6,15.9c-0.5-0.1-1.5-0.4-2.8-1c-10.3-4.6-17.2-17.6-15.4-29.3
		c1.8-11.6,12.3-22.1,20.2-21.1c3.7,0.5,4.6,3.2,11.4,5.1c6.6,1.9,8.6,0.2,11.9,1.6C345.3,329.2,348.9,343.8,344.2,354.7z"/>
	
		<linearGradient id="SVGID_8_" gradientUnits="userSpaceOnUse" x1="319.5959" y1="372.406" x2="319.5959" y2="372.406" gradientTransform="matrix(0.9606 0.278 -0.278 0.9606 106.498 -75.7054)">
		<stop  offset="0" style="stop-color:#FFFE00"/>
		<stop  offset="5.030137e-02" style="stop-color:#FFF600"/>
		<stop  offset="0.1279" style="stop-color:#FFE100"/>
		<stop  offset="0.223" style="stop-color:#FFBD00"/>
		<stop  offset="0.3321" style="stop-color:#FF8C00"/>
		<stop  offset="0.4529" style="stop-color:#FF4D00"/>
		<stop  offset="0.5818" style="stop-color:#FF0200"/>
		<stop  offset="0.5844" style="stop-color:#FF0000"/>
	</linearGradient>
	<path class="st10" d="M310,370.9"/>
	
		<linearGradient id="SVGID_9_" gradientUnits="userSpaceOnUse" x1="318.5291" y1="371.9107" x2="318.5291" y2="371.9107" gradientTransform="matrix(0.9606 0.278 -0.278 0.9606 106.498 -75.7054)">
		<stop  offset="0" style="stop-color:#FFFE00"/>
		<stop  offset="5.030137e-02" style="stop-color:#FFF600"/>
		<stop  offset="0.1279" style="stop-color:#FFE100"/>
		<stop  offset="0.223" style="stop-color:#FFBD00"/>
		<stop  offset="0.3321" style="stop-color:#FF8C00"/>
		<stop  offset="0.4529" style="stop-color:#FF4D00"/>
		<stop  offset="0.5818" style="stop-color:#FF0200"/>
		<stop  offset="0.5844" style="stop-color:#FF0000"/>
	</linearGradient>
	<path class="st11" d="M309.1,370.1"/>
	<path class="st5" d="M297.6,315"/>
</g>
<g>
	<path class="st0" d="M267.5,384.4c-1.8,1.2-10.6-2.3-12.8-7c-0.6-1.3,0-1.3,0.3-7.8c0.2-3.8,0-4.6,0.8-4.8c2-0.6,7.5,3.4,10.4,7.5
		c0,0,3.2,4.7,1.7,11.5C267.9,383.9,267.8,384.2,267.5,384.4z"/>
	<path class="st1" d="M249.8,434.7c-0.2,0.3,0.5,1.3,1.8,1.3c0.8,0,1.9-0.3,2-0.6C253.8,434.8,250.2,434.2,249.8,434.7z"/>
	<path class="st1" d="M264.8,390.3c-0.7-0.3,3.8-7.8,4.3-8.5c2.5-4.1,3.7-6.1,4.4-5.9c1.1,0.3,1.6,4.9-0.6,6.6
		c-0.5,0.4-0.6,0.4-1.8,0.9c-2,0.8-3,2.6-3.4,3.2c-0.7,1.2-0.6,1.8-1.6,2.8C265.7,389.8,265.1,390.5,264.8,390.3z"/>
	
		<linearGradient id="SVGID_10_" gradientUnits="userSpaceOnUse" x1="263.3579" y1="403.7153" x2="300.6951" y2="441.0525" gradientTransform="matrix(0.9606 0.278 -0.278 0.9606 106.498 -75.7054)">
		<stop  offset="0" style="stop-color:#FFFE00"/>
		<stop  offset="5.030137e-02" style="stop-color:#FFF600"/>
		<stop  offset="0.1279" style="stop-color:#FFE100"/>
		<stop  offset="0.223" style="stop-color:#FFBD00"/>
		<stop  offset="0.3321" style="stop-color:#FF8C00"/>
		<stop  offset="0.4529" style="stop-color:#FF4D00"/>
		<stop  offset="0.5818" style="stop-color:#FF0200"/>
		<stop  offset="0.5844" style="stop-color:#FF0000"/>
	</linearGradient>
	<path class="st12" d="M284,419.1c-4.4,10.1-17.4,20-31.6,15.9c-0.5-0.1-1.5-0.4-2.8-1c-10.3-4.6-17.2-17.6-15.4-29.3
		c1.8-11.6,12.3-22.1,20.2-21.1c3.7,0.5,4.6,3.2,11.4,5.1c6.6,1.9,8.6,0.2,11.9,1.6C285,393.6,288.7,408.2,284,419.1z"/>
	
		<linearGradient id="SVGID_11_" gradientUnits="userSpaceOnUse" x1="279.6677" y1="451.0085" x2="279.6677" y2="451.0085" gradientTransform="matrix(0.9606 0.278 -0.278 0.9606 106.498 -75.7054)">
		<stop  offset="0" style="stop-color:#FFFE00"/>
		<stop  offset="5.030137e-02" style="stop-color:#FFF600"/>
		<stop  offset="0.1279" style="stop-color:#FFE100"/>
		<stop  offset="0.223" style="stop-color:#FFBD00"/>
		<stop  offset="0.3321" style="stop-color:#FF8C00"/>
		<stop  offset="0.4529" style="stop-color:#FF4D00"/>
		<stop  offset="0.5818" style="stop-color:#FF0200"/>
		<stop  offset="0.5844" style="stop-color:#FF0000"/>
	</linearGradient>
	<path class="st13" d="M249.8,435.3"/>
	
		<linearGradient id="SVGID_12_" gradientUnits="userSpaceOnUse" x1="278.6009" y1="450.5132" x2="278.6009" y2="450.5132" gradientTransform="matrix(0.9606 0.278 -0.278 0.9606 106.498 -75.7054)">
		<stop  offset="0" style="stop-color:#FFFE00"/>
		<stop  offset="5.030137e-02" style="stop-color:#FFF600"/>
		<stop  offset="0.1279" style="stop-color:#FFE100"/>
		<stop  offset="0.223" style="stop-color:#FFBD00"/>
		<stop  offset="0.3321" style="stop-color:#FF8C00"/>
		<stop  offset="0.4529" style="stop-color:#FF4D00"/>
		<stop  offset="0.5818" style="stop-color:#FF0200"/>
		<stop  offset="0.5844" style="stop-color:#FF0000"/>
	</linearGradient>
	<path class="st14" d="M248.9,434.5"/>
	<path class="st5" d="M237.4,379.4"/>
</g>
<g>
	<path class="st0" d="M465.5,247.6c-0.6,2.1-9.8,6-14.7,4.3c-1.4-0.5-0.9-0.9-5.3-5.8c-2.5-2.8-3.2-3.3-2.8-4
		c1.1-1.9,8.1-3,13.2-2.1c0,0,5.8,1,9.4,6.9C465.4,247,465.6,247.2,465.5,247.6z"/>
	<path class="st1" d="M487.4,295.9c0.1,0.4,1.3,0.5,2.3-0.4c0.6-0.5,1.2-1.6,1.1-1.8C490.6,293.1,487.3,295.3,487.4,295.9z"/>
	<path class="st1" d="M467.6,253.7c-0.8,0.2-2.6-8.3-2.7-9.1c-1-4.7-1.5-7-0.8-7.4c1.1-0.6,4.7,2.3,4.2,5.1c-0.1,0.7-0.2,0.7-0.7,2
		c-0.9,2-0.5,4-0.3,4.6c0.3,1.3,0.8,1.7,0.8,3.2C467.9,252.7,467.9,253.6,467.6,253.7z"/>
	
		<linearGradient id="SVGID_13_" gradientUnits="userSpaceOnUse" x1="454.9507" y1="252.4477" x2="493.1607" y2="290.6577" gradientTransform="matrix(0.8845 -0.4666 0.4666 0.8845 -69.3311 251.0088)">
		<stop  offset="0" style="stop-color:#FFFE00"/>
		<stop  offset="5.030137e-02" style="stop-color:#FFF600"/>
		<stop  offset="0.1279" style="stop-color:#FFE100"/>
		<stop  offset="0.223" style="stop-color:#FFBD00"/>
		<stop  offset="0.3321" style="stop-color:#FF8C00"/>
		<stop  offset="0.4529" style="stop-color:#FF4D00"/>
		<stop  offset="0.5818" style="stop-color:#FF0200"/>
		<stop  offset="0.5844" style="stop-color:#FF0000"/>
	</linearGradient>
	<path class="st15" d="M502.6,260.3c3.8,10.3,0.8,26.6-13,33.9c-0.5,0.2-1.5,0.8-2.9,1.3c-11.1,4.1-25.6-0.1-32.4-9.8
		c-6.8-9.5-6.1-24.5,0.6-29.4c3.1-2.3,5.8-1,12.4-4.6c6.3-3.4,6.7-6.1,10.3-7.4C485.4,241.6,498.6,249.3,502.6,260.3z"/>
	
		<linearGradient id="SVGID_14_" gradientUnits="userSpaceOnUse" x1="471.5702" y1="300.0521" x2="471.5702" y2="300.0521" gradientTransform="matrix(0.8845 -0.4666 0.4666 0.8845 -69.3311 251.0088)">
		<stop  offset="0" style="stop-color:#FFFE00"/>
		<stop  offset="5.030137e-02" style="stop-color:#FFF600"/>
		<stop  offset="0.1279" style="stop-color:#FFE100"/>
		<stop  offset="0.223" style="stop-color:#FFBD00"/>
		<stop  offset="0.3321" style="stop-color:#FF8C00"/>
		<stop  offset="0.4529" style="stop-color:#FF4D00"/>
		<stop  offset="0.5818" style="stop-color:#FF0200"/>
		<stop  offset="0.5844" style="stop-color:#FF0000"/>
	</linearGradient>
	<path class="st16" d="M487.8,296.4"/>
	
		<linearGradient id="SVGID_15_" gradientUnits="userSpaceOnUse" x1="470.4464" y1="299.5595" x2="470.4464" y2="299.5595" gradientTransform="matrix(0.8845 -0.4666 0.4666 0.8845 -69.3311 251.0088)">
		<stop  offset="0" style="stop-color:#FFFE00"/>
		<stop  offset="5.030137e-02" style="stop-color:#FFF600"/>
		<stop  offset="0.1279" style="stop-color:#FFE100"/>
		<stop  offset="0.223" style="stop-color:#FFBD00"/>
		<stop  offset="0.3321" style="stop-color:#FF8C00"/>
		<stop  offset="0.4529" style="stop-color:#FF4D00"/>
		<stop  offset="0.5818" style="stop-color:#FF0200"/>
		<stop  offset="0.5844" style="stop-color:#FF0000"/>
	</linearGradient>
	<path class="st17" d="M486.5,296.4"/>
	<path class="st5" d="M438.9,265.7"/>
</g>
<g>
	<path class="st0" d="M341.5,68.9c-2.3,1.2-12.7-3.7-15-9.4c-0.7-1.6,0-1.5,0.9-9.3c0.5-4.4,0.4-5.4,1.4-5.7c2.5-0.6,8.8,4.7,12,9.9
		c0,0,3.6,5.9,1.2,13.9C342,68.4,341.9,68.7,341.5,68.9z"/>
	<path class="st1" d="M316.4,127.1c-0.3,0.4,0.6,1.6,2.1,1.7c0.9,0.1,2.3-0.2,2.4-0.5C321.2,127.6,316.8,126.5,316.4,127.1z"/>
	<path class="st1" d="M337.8,75.7c-0.8-0.5,5.2-8.9,5.8-9.8c3.3-4.6,4.9-7,5.7-6.7c1.3,0.5,1.5,6-1.2,7.8c-0.7,0.5-0.8,0.4-2.3,0.9
		c-2.4,0.8-3.8,2.8-4.3,3.4c-0.9,1.3-0.9,2.1-2.1,3.2C338.9,75.2,338.1,75.9,337.8,75.7z"/>
	
		<linearGradient id="SVGID_16_" gradientUnits="userSpaceOnUse" x1="310.7625" y1="74.0563" x2="355.6277" y2="118.9215" gradientTransform="matrix(0.9395 0.3427 -0.3427 0.9395 50.625 -108.0416)">
		<stop  offset="0" style="stop-color:#FFFE00"/>
		<stop  offset="5.030137e-02" style="stop-color:#FFF600"/>
		<stop  offset="0.1279" style="stop-color:#FFE100"/>
		<stop  offset="0.223" style="stop-color:#FFBD00"/>
		<stop  offset="0.3321" style="stop-color:#FF8C00"/>
		<stop  offset="0.4529" style="stop-color:#FF4D00"/>
		<stop  offset="0.5818" style="stop-color:#FF0200"/>
		<stop  offset="0.5844" style="stop-color:#FF0000"/>
	</linearGradient>
	<path class="st18" d="M358.9,111.6c-6.1,11.6-22.5,22.3-39.4,16.1c-0.6-0.2-1.8-0.6-3.4-1.5c-12.1-6.4-19.6-22.4-16.4-36.2
		c3.1-13.6,16.5-25.2,26-23.2c4.4,0.9,5.4,4.2,13.5,7.1c7.8,2.8,10.5,1,14.3,3C362,81.4,365.4,99.1,358.9,111.6z"/>
	
		<linearGradient id="SVGID_17_" gradientUnits="userSpaceOnUse" x1="330.3278" y1="130.5265" x2="330.3278" y2="130.5265" gradientTransform="matrix(0.9395 0.3427 -0.3427 0.9395 50.625 -108.0416)">
		<stop  offset="0" style="stop-color:#FFFE00"/>
		<stop  offset="5.030137e-02" style="stop-color:#FFF600"/>
		<stop  offset="0.1279" style="stop-color:#FFE100"/>
		<stop  offset="0.223" style="stop-color:#FFBD00"/>
		<stop  offset="0.3321" style="stop-color:#FF8C00"/>
		<stop  offset="0.4529" style="stop-color:#FF4D00"/>
		<stop  offset="0.5818" style="stop-color:#FF0200"/>
		<stop  offset="0.5844" style="stop-color:#FF0000"/>
	</linearGradient>
	<path class="st19" d="M316.2,127.8"/>
	
		<linearGradient id="SVGID_18_" gradientUnits="userSpaceOnUse" x1="329.0312" y1="129.9378" x2="329.0312" y2="129.9378" gradientTransform="matrix(0.9395 0.3427 -0.3427 0.9395 50.625 -108.0416)">
		<stop  offset="0" style="stop-color:#FFFE00"/>
		<stop  offset="5.030137e-02" style="stop-color:#FFF600"/>
		<stop  offset="0.1279" style="stop-color:#FFE100"/>
		<stop  offset="0.223" style="stop-color:#FFBD00"/>
		<stop  offset="0.3321" style="stop-color:#FF8C00"/>
		<stop  offset="0.4529" style="stop-color:#FF4D00"/>
		<stop  offset="0.5818" style="stop-color:#FF0200"/>
		<stop  offset="0.5844" style="stop-color:#FF0000"/>
	</linearGradient>
	<path class="st20" d="M315.2,126.8"/>
	<path class="st5" d="M305.4,60.3"/>
</g>
<g>
	<path class="st0" d="M311.7,159.2c-0.7,1.6-8.3,3.5-12,1.5c-1-0.6-0.6-0.8-3.5-5.3c-1.6-2.6-2.1-3-1.7-3.6c1.1-1.4,6.7-1.3,10.6,0
		c0,0,4.4,1.5,6.6,6.8C311.7,158.8,311.8,159,311.7,159.2z"/>
	<path class="st1" d="M323.5,200.7c0,0.3,1,0.6,1.8,0c0.5-0.4,1.1-1.1,1.1-1.3C326.3,198.9,323.5,200.2,323.5,200.7z"/>
	<path class="st1" d="M312.7,164.4c-0.6,0.1-1.1-6.9-1.2-7.6c-0.3-3.9-0.4-5.8,0.2-6c0.9-0.3,3.4,2.5,2.7,4.6
		c-0.2,0.5-0.2,0.6-0.8,1.5c-0.9,1.5-0.8,3.1-0.8,3.7c0.1,1.1,0.4,1.5,0.3,2.6C313,163.6,312.9,164.4,312.7,164.4z"/>
	
		<linearGradient id="SVGID_19_" gradientUnits="userSpaceOnUse" x1="301.1399" y1="164.0908" x2="331.7" y2="194.6508" gradientTransform="matrix(0.9441 -0.3297 0.3297 0.9441 -39.9035 113.6045)">
		<stop  offset="0" style="stop-color:#FFFE00"/>
		<stop  offset="5.030137e-02" style="stop-color:#FFF600"/>
		<stop  offset="0.1279" style="stop-color:#FFE100"/>
		<stop  offset="0.223" style="stop-color:#FFBD00"/>
		<stop  offset="0.3321" style="stop-color:#FF8C00"/>
		<stop  offset="0.4529" style="stop-color:#FF4D00"/>
		<stop  offset="0.5818" style="stop-color:#FF0200"/>
		<stop  offset="0.5844" style="stop-color:#FF0000"/>
	</linearGradient>
	<path class="st21" d="M339.3,174.2c1.8,8.7-2.3,21.4-13.9,25.5c-0.4,0.1-1.2,0.4-2.4,0.7c-9.1,1.9-20-3.4-24.3-12
		c-4.2-8.5-2.1-20.4,3.7-23.4c2.7-1.4,4.7-0.1,10.2-2.1c5.3-1.9,5.9-4,8.9-4.6C327.9,157,337.3,164.8,339.3,174.2z"/>
	
		<linearGradient id="SVGID_20_" gradientUnits="userSpaceOnUse" x1="314.4647" y1="202.5319" x2="314.4647" y2="202.5319" gradientTransform="matrix(0.9441 -0.3297 0.3297 0.9441 -39.9035 113.6045)">
		<stop  offset="0" style="stop-color:#FFFE00"/>
		<stop  offset="5.030137e-02" style="stop-color:#FFF600"/>
		<stop  offset="0.1279" style="stop-color:#FFE100"/>
		<stop  offset="0.223" style="stop-color:#FFBD00"/>
		<stop  offset="0.3321" style="stop-color:#FF8C00"/>
		<stop  offset="0.4529" style="stop-color:#FF4D00"/>
		<stop  offset="0.5818" style="stop-color:#FF0200"/>
		<stop  offset="0.5844" style="stop-color:#FF0000"/>
	</linearGradient>
	<path class="st22" d="M323.8,201.1"/>
	
		<linearGradient id="SVGID_21_" gradientUnits="userSpaceOnUse" x1="313.5806" y1="202.1313" x2="313.5806" y2="202.1313" gradientTransform="matrix(0.9441 -0.3297 0.3297 0.9441 -39.9035 113.6045)">
		<stop  offset="0" style="stop-color:#FFFE00"/>
		<stop  offset="5.030137e-02" style="stop-color:#FFF600"/>
		<stop  offset="0.1279" style="stop-color:#FFE100"/>
		<stop  offset="0.223" style="stop-color:#FFBD00"/>
		<stop  offset="0.3321" style="stop-color:#FF8C00"/>
		<stop  offset="0.4529" style="stop-color:#FF4D00"/>
		<stop  offset="0.5818" style="stop-color:#FF0200"/>
		<stop  offset="0.5844" style="stop-color:#FF0000"/>
	</linearGradient>
	<path class="st23" d="M322.8,201"/>
	<path class="st5" d="M288.9,170.3"/>
</g>
<g>
	<path class="st0" d="M395.2,189.4c-1.5,1.6-11.1,0.7-14.6-3.1c-1-1.1-0.4-1.2-1.9-7.6c-0.9-3.7-1.3-4.4-0.6-4.9
		c1.8-1.2,8.3,1.2,12.3,4.4c0,0,4.5,3.6,5,10.6C395.4,188.9,395.4,189.2,395.2,189.4z"/>
	<path class="st1" d="M392.1,243c-0.1,0.4,0.9,1.1,2.1,0.8c0.8-0.2,1.8-0.8,1.8-1.1C396.1,242,392.3,242.3,392.1,243z"/>
	<path class="st1" d="M394.2,195.9c-0.8-0.1,1.5-8.6,1.8-9.4c1.3-4.6,1.9-7,2.6-7c1.2,0,2.9,4.3,1.3,6.6c-0.4,0.6-0.5,0.6-1.5,1.4
		c-1.7,1.3-2.2,3.3-2.4,4c-0.4,1.3-0.1,1.9-0.8,3.2C394.9,195.2,394.5,196,394.2,195.9z"/>
	<linearGradient id="SVGID_22_" gradientUnits="userSpaceOnUse" x1="375.6688" y1="195.831" x2="413.5167" y2="233.6789">
		<stop  offset="0" style="stop-color:#FFFE00"/>
		<stop  offset="5.030137e-02" style="stop-color:#FFF600"/>
		<stop  offset="0.1279" style="stop-color:#FFE100"/>
		<stop  offset="0.223" style="stop-color:#FFBD00"/>
		<stop  offset="0.3321" style="stop-color:#FF8C00"/>
		<stop  offset="0.4529" style="stop-color:#FF4D00"/>
		<stop  offset="0.5818" style="stop-color:#FF0200"/>
		<stop  offset="0.5844" style="stop-color:#FF0000"/>
	</linearGradient>
	<path class="st24" d="M421.3,218.3c-1.4,11-11.4,24.2-26.5,24.2c-0.5,0-1.6,0-3.1-0.2c-11.4-1.5-21.9-12.2-23.5-24
		c-1.5-11.7,5.8-24.8,13.8-26c3.7-0.6,5.5,1.8,12.7,1.8c7,0,8.5-2.3,12.2-1.8C415,193.5,422.8,206.5,421.3,218.3z"/>
	<linearGradient id="SVGID_23_" gradientUnits="userSpaceOnUse" x1="392.1792" y1="243.5266" x2="392.1792" y2="243.5266">
		<stop  offset="0" style="stop-color:#FFFE00"/>
		<stop  offset="5.030137e-02" style="stop-color:#FFF600"/>
		<stop  offset="0.1279" style="stop-color:#FFE100"/>
		<stop  offset="0.223" style="stop-color:#FFBD00"/>
		<stop  offset="0.3321" style="stop-color:#FF8C00"/>
		<stop  offset="0.4529" style="stop-color:#FF4D00"/>
		<stop  offset="0.5818" style="stop-color:#FF0200"/>
		<stop  offset="0.5844" style="stop-color:#FF0000"/>
	</linearGradient>
	<path class="st25" d="M392.2,243.5"/>
	<linearGradient id="SVGID_24_" gradientUnits="userSpaceOnUse" x1="391.0877" y1="243.0289" x2="391.0877" y2="243.0289">
		<stop  offset="0" style="stop-color:#FFFE00"/>
		<stop  offset="5.030137e-02" style="stop-color:#FFF600"/>
		<stop  offset="0.1279" style="stop-color:#FFE100"/>
		<stop  offset="0.223" style="stop-color:#FFBD00"/>
		<stop  offset="0.3321" style="stop-color:#FF8C00"/>
		<stop  offset="0.4529" style="stop-color:#FF4D00"/>
		<stop  offset="0.5818" style="stop-color:#FF0200"/>
		<stop  offset="0.5844" style="stop-color:#FF0000"/>
	</linearGradient>
	<path class="st26" d="M391.1,243"/>
	<path class="st5" d="M364.1,193.1"/>
</g>
<g>
	<path class="st0" d="M259.8,220.4c-1.7,1.9-13.2,0.8-17.3-3.7c-1.2-1.3-0.5-1.4-2.3-9c-1-4.3-1.5-5.2-0.7-5.8
		c2.2-1.4,9.9,1.4,14.6,5.2c0,0,5.4,4.3,5.9,12.6C260,219.7,260,220,259.8,220.4z"/>
	<path class="st1" d="M256.1,283.7c-0.1,0.4,1.1,1.3,2.5,0.9c0.9-0.2,2.1-1,2.1-1.3C260.8,282.5,256.4,282.9,256.1,283.7z"/>
	<path class="st1" d="M258.6,228c-0.9-0.2,1.8-10.2,2.1-11.2c1.5-5.5,2.2-8.2,3.1-8.2c1.4,0,3.5,5.1,1.6,7.8
		c-0.5,0.7-0.6,0.7-1.8,1.6c-2,1.6-2.6,3.9-2.9,4.7c-0.4,1.6-0.1,2.3-0.9,3.8C259.5,227.1,259,228.1,258.6,228z"/>
	<linearGradient id="SVGID_25_" gradientUnits="userSpaceOnUse" x1="236.6513" y1="227.8768" x2="281.5165" y2="272.742">
		<stop  offset="0" style="stop-color:#FFFE00"/>
		<stop  offset="5.030137e-02" style="stop-color:#FFF600"/>
		<stop  offset="0.1279" style="stop-color:#FFE100"/>
		<stop  offset="0.223" style="stop-color:#FFBD00"/>
		<stop  offset="0.3321" style="stop-color:#FF8C00"/>
		<stop  offset="0.4529" style="stop-color:#FF4D00"/>
		<stop  offset="0.5818" style="stop-color:#FF0200"/>
		<stop  offset="0.5844" style="stop-color:#FF0000"/>
	</linearGradient>
	<path class="st27" d="M290.8,254.5c-1.7,13-13.5,28.6-31.5,28.6c-0.6,0-1.9,0-3.7-0.2c-13.5-1.8-26.1-14.4-27.9-28.4
		c-1.8-13.8,6.9-29.3,16.4-30.7c4.4-0.7,6.5,2.1,15.1,2.1c8.3,0,10.2-2.7,14.5-2.1C283.3,225.1,292.6,240.6,290.8,254.5z"/>
	<linearGradient id="SVGID_26_" gradientUnits="userSpaceOnUse" x1="256.2166" y1="284.347" x2="256.2166" y2="284.347">
		<stop  offset="0" style="stop-color:#FFFE00"/>
		<stop  offset="5.030137e-02" style="stop-color:#FFF600"/>
		<stop  offset="0.1279" style="stop-color:#FFE100"/>
		<stop  offset="0.223" style="stop-color:#FFBD00"/>
		<stop  offset="0.3321" style="stop-color:#FF8C00"/>
		<stop  offset="0.4529" style="stop-color:#FF4D00"/>
		<stop  offset="0.5818" style="stop-color:#FF0200"/>
		<stop  offset="0.5844" style="stop-color:#FF0000"/>
	</linearGradient>
	<path class="st28" d="M256.2,284.3"/>
	<linearGradient id="SVGID_27_" gradientUnits="userSpaceOnUse" x1="254.9199" y1="283.7583" x2="254.9199" y2="283.7583">
		<stop  offset="0" style="stop-color:#FFFE00"/>
		<stop  offset="5.030137e-02" style="stop-color:#FFF600"/>
		<stop  offset="0.1279" style="stop-color:#FFE100"/>
		<stop  offset="0.223" style="stop-color:#FFBD00"/>
		<stop  offset="0.3321" style="stop-color:#FF8C00"/>
		<stop  offset="0.4529" style="stop-color:#FF4D00"/>
		<stop  offset="0.5818" style="stop-color:#FF0200"/>
		<stop  offset="0.5844" style="stop-color:#FF0000"/>
	</linearGradient>
	<path class="st29" d="M254.9,283.8"/>
	<path class="st5" d="M222.9,224.6"/>
</g>
<g>
	<path class="st0" d="M430.5,348.6c-1.7,0.8-8.8-3.1-10.1-7.4c-0.4-1.2,0.1-1.1,1.2-6.8c0.6-3.3,0.6-4,1.3-4.1
		c1.8-0.4,6,3.7,7.9,7.6c0,0,2.2,4.4,0.1,10.3C430.8,348.2,430.7,348.5,430.5,348.6z"/>
	<path class="st1" d="M409.4,390.9c-0.2,0.3,0.3,1.2,1.4,1.3c0.7,0.1,1.6-0.1,1.8-0.3C412.8,391.4,409.7,390.4,409.4,390.9z"/>
	<path class="st1" d="M427.4,353.5c-0.5-0.4,4.2-6.4,4.7-7c2.6-3.3,3.9-5,4.5-4.8c0.9,0.4,0.8,4.4-1.3,5.7c-0.5,0.3-0.6,0.3-1.7,0.6
		c-1.8,0.5-2.9,1.9-3.2,2.4c-0.7,1-0.7,1.5-1.7,2.3C428.3,353.1,427.7,353.7,427.4,353.5z"/>
	
		<linearGradient id="SVGID_28_" gradientUnits="userSpaceOnUse" x1="407.1442" y1="352.4698" x2="439.6915" y2="385.0172" gradientTransform="matrix(0.9176 0.3975 -0.3975 0.9176 179.173 -137.7682)">
		<stop  offset="0" style="stop-color:#FFFE00"/>
		<stop  offset="5.030137e-02" style="stop-color:#FFF600"/>
		<stop  offset="0.1279" style="stop-color:#FFE100"/>
		<stop  offset="0.223" style="stop-color:#FFBD00"/>
		<stop  offset="0.3321" style="stop-color:#FF8C00"/>
		<stop  offset="0.4529" style="stop-color:#FF4D00"/>
		<stop  offset="0.5818" style="stop-color:#FF0200"/>
		<stop  offset="0.5844" style="stop-color:#FF0000"/>
	</linearGradient>
	<path class="st30" d="M440.4,380.6c-4.9,8.4-17.2,15.8-28.9,10.7c-0.4-0.2-1.2-0.5-2.3-1.2c-8.2-5-12.6-17.1-9.6-27.2
		c3-10,13.1-18.1,19.7-16.4c3.1,0.8,3.6,3.3,9.1,5.7c5.4,2.3,7.4,1,10,2.6C444.3,358.5,445.7,371.6,440.4,380.6z"/>
	
		<linearGradient id="SVGID_29_" gradientUnits="userSpaceOnUse" x1="421.3972" y1="394.0714" x2="421.3972" y2="394.0714" gradientTransform="matrix(0.9176 0.3975 -0.3975 0.9176 179.173 -137.7682)">
		<stop  offset="0" style="stop-color:#FFFE00"/>
		<stop  offset="5.030137e-02" style="stop-color:#FFF600"/>
		<stop  offset="0.1279" style="stop-color:#FFE100"/>
		<stop  offset="0.223" style="stop-color:#FFBD00"/>
		<stop  offset="0.3321" style="stop-color:#FF8C00"/>
		<stop  offset="0.4529" style="stop-color:#FF4D00"/>
		<stop  offset="0.5818" style="stop-color:#FF0200"/>
		<stop  offset="0.5844" style="stop-color:#FF0000"/>
	</linearGradient>
	<path class="st31" d="M409.2,391.3"/>
	
		<linearGradient id="SVGID_30_" gradientUnits="userSpaceOnUse" x1="420.4832" y1="393.6328" x2="420.4832" y2="393.6328" gradientTransform="matrix(0.9176 0.3975 -0.3975 0.9176 179.173 -137.7682)">
		<stop  offset="0" style="stop-color:#FFFE00"/>
		<stop  offset="5.030137e-02" style="stop-color:#FFF600"/>
		<stop  offset="0.1279" style="stop-color:#FFE100"/>
		<stop  offset="0.223" style="stop-color:#FFBD00"/>
		<stop  offset="0.3321" style="stop-color:#FF8C00"/>
		<stop  offset="0.4529" style="stop-color:#FF4D00"/>
		<stop  offset="0.5818" style="stop-color:#FF0200"/>
		<stop  offset="0.5844" style="stop-color:#FF0000"/>
	</linearGradient>
	<path class="st32" d="M408.6,390.6"/>
	<path class="st5" d="M405.3,341.2"/>
</g>
<g>
	<path class="st0" d="M213.3,105.5c-1.2,2.3-12.6,4-17.7,0.6c-1.4-1-0.8-1.3-4.4-8.2c-2.1-4-2.7-4.7-2.1-5.4
		c1.7-1.9,9.9-1.1,15.4,1.4c0,0,6.3,2.8,8.8,10.8C213.4,104.8,213.5,105.2,213.3,105.5z"/>
	<path class="st1" d="M225.3,167.8c0,0.5,1.3,1,2.7,0.2c0.8-0.4,1.8-1.4,1.7-1.8C229.5,165.5,225.3,167,225.3,167.8z"/>
	<path class="st1" d="M214.1,113.3c-0.9,0.1-0.7-10.3-0.7-11.3c0.1-5.7,0.2-8.5,1-8.8c1.4-0.4,4.6,4.1,3.4,7.2
		c-0.3,0.8-0.4,0.8-1.4,2c-1.6,2-1.6,4.4-1.6,5.3c0,1.6,0.4,2.2,0,3.9C214.7,112.2,214.4,113.2,214.1,113.3z"/>
	
		<linearGradient id="SVGID_31_" gradientUnits="userSpaceOnUse" x1="195.8193" y1="113.048" x2="240.6845" y2="157.9132" gradientTransform="matrix(0.9696 -0.2445 0.2445 0.9696 -24.7955 56.7373)">
		<stop  offset="0" style="stop-color:#FFFE00"/>
		<stop  offset="5.030137e-02" style="stop-color:#FFF600"/>
		<stop  offset="0.1279" style="stop-color:#FFE100"/>
		<stop  offset="0.223" style="stop-color:#FFBD00"/>
		<stop  offset="0.3321" style="stop-color:#FF8C00"/>
		<stop  offset="0.4529" style="stop-color:#FF4D00"/>
		<stop  offset="0.5818" style="stop-color:#FF0200"/>
		<stop  offset="0.5844" style="stop-color:#FF0000"/>
	</linearGradient>
	<path class="st33" d="M251.7,131.1c1.5,13-6.1,31.1-23.6,35.5c-0.6,0.1-1.9,0.5-3.6,0.7c-13.6,1.5-28.8-7.6-34-20.7
		c-5.1-13-0.5-30.1,8.4-33.8c4.1-1.7,6.8,0.5,15.1-1.7c8-2.1,9.2-5.1,13.5-5.6C237.3,104.4,250.1,117.1,251.7,131.1z"/>
	
		<linearGradient id="SVGID_32_" gradientUnits="userSpaceOnUse" x1="215.3846" y1="169.5181" x2="215.3846" y2="169.5181" gradientTransform="matrix(0.9696 -0.2445 0.2445 0.9696 -24.7955 56.7373)">
		<stop  offset="0" style="stop-color:#FFFE00"/>
		<stop  offset="5.030137e-02" style="stop-color:#FFF600"/>
		<stop  offset="0.1279" style="stop-color:#FFE100"/>
		<stop  offset="0.223" style="stop-color:#FFBD00"/>
		<stop  offset="0.3321" style="stop-color:#FF8C00"/>
		<stop  offset="0.4529" style="stop-color:#FF4D00"/>
		<stop  offset="0.5818" style="stop-color:#FF0200"/>
		<stop  offset="0.5844" style="stop-color:#FF0000"/>
	</linearGradient>
	<path class="st34" d="M225.5,168.4"/>
	
		<linearGradient id="SVGID_33_" gradientUnits="userSpaceOnUse" x1="214.088" y1="168.9294" x2="214.088" y2="168.9294" gradientTransform="matrix(0.9696 -0.2445 0.2445 0.9696 -24.7955 56.7373)">
		<stop  offset="0" style="stop-color:#FFFE00"/>
		<stop  offset="5.030137e-02" style="stop-color:#FFF600"/>
		<stop  offset="0.1279" style="stop-color:#FFE100"/>
		<stop  offset="0.223" style="stop-color:#FFBD00"/>
		<stop  offset="0.3321" style="stop-color:#FF8C00"/>
		<stop  offset="0.4529" style="stop-color:#FF4D00"/>
		<stop  offset="0.5818" style="stop-color:#FF0200"/>
		<stop  offset="0.5844" style="stop-color:#FF0000"/>
	</linearGradient>
	<path class="st35" d="M224.1,168.2"/>
	<path class="st5" d="M178.6,118.7"/>
</g>
</svg>
