<?xml version="1.0" encoding="utf-8"?>
<!-- Generator: Adobe Illustrator 24.3.0, SVG Export Plug-In . SVG Version: 6.00 Build 0)  -->
<svg version="1.1" id="Layer_1" xmlns="http://www.w3.org/2000/svg" xmlns:xlink="http://www.w3.org/1999/xlink" x="0px" y="0px"
	 viewBox="0 0 179 100" style="enable-background:new 0 0 179 100;" xml:space="preserve">
<style type="text/css">
	.st0{fill:#FFFFFF;stroke:#FFFFFF;stroke-miterlimit:10;}
</style>
<path class="st0" d="M26.5,26.2C37.9,15.4,47.5,6.3,59,8c12.5,1.8,15.6,14.6,25.5,12.3c6.9-1.6,6.6-8.2,15.3-13.3
	c11.6-7,28.2-4.7,34.9,5.9c3.9,6.2,1.3,10.3,5.9,16.8c5.9,8.3,12.3,4.5,18,11.4c7.1,8.5,8,27.3,2,34.1c-5.3,6-11.7-2.3-25.9,1.5
	c-11.4,3.1-11.4,9.6-24.3,13.3c-4.4,1.3-13.3,3.9-23.1,0C76,85.5,76.4,77.5,66.9,75.1c-9.8-2.5-12.2,5.6-24.3,4
	C39,78.6,30.1,76.7,23,67.7c-1.9-2.3-10-12.5-8.2-24.2C15.8,36.6,19.8,32.6,26.5,26.2z"/>
</svg>
