<?xml version="1.0" encoding="utf-8"?>
<!-- Generator: Adobe Illustrator 24.3.0, SVG Export Plug-In . SVG Version: 6.00 Build 0)  -->
<svg version="1.1" id="Layer_1" xmlns="http://www.w3.org/2000/svg" xmlns:xlink="http://www.w3.org/1999/xlink" x="0px" y="0px"
	 viewBox="0 0 595.3 568.9" style="enable-background:new 0 0 595.3 568.9;" xml:space="preserve">
<style type="text/css">
	.st0{fill:#FF9812;}
	.st1{fill:#E85700;}
</style>
<g id="_x31_6:12_Rectangle">
</g>
<g>
	<path class="st0" d="M159.4,346c5.3,18.3,16.1,35.9,30.4,42.2c15.2,6.7,28.4,2.5,34.3-1.5c5.2-3.6,9.2-7.6,7.6-14.4
		c-2.1-8.7-9.2-21.9-24.6-27.2C194.4,340.7,179.4,341.7,159.4,346z"/>
	<path class="st0" d="M245.7,258.1c4.4,15.2,13.4,29.8,25.3,35.1c12.6,5.6,23.6,2.1,28.5-1.3c4.3-3,7.7-6.3,6.3-12
		c-1.8-7.3-7.7-18.2-20.4-22.6C274.7,253.7,262.3,254.5,245.7,258.1z"/>
	<path class="st0" d="M80.3,306.2c4.8,16.5,14.5,32.4,27.4,38.1c13.7,6.1,25.6,2.3,30.9-1.4c4.7-3.2,8.3-6.8,6.9-13
		c-1.9-7.9-8.3-19.8-22.2-24.5C111.8,301.4,98.3,302.3,80.3,306.2z"/>
	<path class="st0" d="M118.9,294.5c14.8,10.3,33.1,16.7,47.3,12.8c15.1-4.1,22.3-15,24.2-21.5c1.7-5.7,2.3-11-3-15
		c-6.7-5.1-19.8-10.5-34.1-5.3C141.4,269.9,130.9,279.5,118.9,294.5z"/>
	<path class="st0" d="M144.8,443.8c15.7-1.9,31.6-8.5,38.6-19.4c7.5-11.6,5.8-23,3.3-28.4c-2.2-4.8-5-8.6-10.8-8.1
		c-7.4,0.6-19.2,4.7-25.5,16.6C145.1,414.5,143.8,426.9,144.8,443.8z"/>
	<path class="st0" d="M248.6,469c16.4-2,32.9-8.8,40.3-20.2c7.9-12.1,6.1-23.9,3.4-29.5c-2.3-5-5.2-8.9-11.2-8.5
		c-7.8,0.6-20,4.9-26.6,17.3C249,438.5,247.7,451.4,248.6,469z"/>
	<path class="st0" d="M120.4,197.7c3.5,18.5,12,36.5,24.2,43.5c13,7.5,24.4,5.1,29.9,1.4c4.8-3.3,9.1-8.1,8-15
		c-1.3-8.8-6.8-22.2-20-28.2C151.5,194.3,138.2,194.4,120.4,197.7z"/>
	<path class="st0" d="M167.4,173.9c3.9,20.3,13.2,40.2,26.6,47.9c14.3,8.2,26.9,5.6,32.9,1.5c5.3-3.6,10-9,8.8-16.5
		c-1.4-9.7-7.5-24.5-22-31.1C201.6,170.2,187,170.4,167.4,173.9z"/>
	<path class="st0" d="M87.1,389.4c18,9.3,39,14.2,53.1,8.5c15-6,20.6-17.3,21.1-24.4c0.4-6.3-0.9-13.1-7.4-16.8
		c-8.3-4.8-23.4-9.1-37.3-1.9C105,360.8,96.2,372.1,87.1,389.4z"/>
	<path class="st0" d="M55.7,261.1c10.2,14.6,25.1,27,39.7,28.2c15.5,1.4,26-6.3,30-11.7c3.6-4.7,5.9-9.5,2.4-15
		c-4.5-7.1-14.8-16.6-30-16.7C85.1,245.9,72,251.3,55.7,261.1z"/>
	<path class="st0" d="M168.4,310.4c11.2,16.1,27.6,29.6,43.7,31.1c17.1,1.5,28.5-7,33-12.9c3.9-5.2,6.5-10.5,2.6-16.5
		c-4.9-7.8-16.3-18.3-33-18.3C200.7,293.7,186.4,299.6,168.4,310.4z"/>
	<path class="st0" d="M227.9,345.7c5.1,17.9,15.6,35.1,29.6,41.3c14.9,6.6,27.7,2.5,33.5-1.4c5.1-3.5,9-7.4,7.5-14
		c-2-8.5-9-21.4-23.9-26.6C262,340.7,247.4,341.6,227.9,345.7z"/>
	<path class="st0" d="M265.2,424.2c10.7,15.3,26.2,28.1,41.4,29.4c16.2,1.4,27-6.6,31.2-12.2c3.7-4.9,6.2-9.9,2.5-15.7
		c-4.7-7.4-15.4-17.4-31.3-17.4C295.9,408.4,282.3,414,265.2,424.2z"/>
	<path class="st0" d="M252.6,288.8c-3.4,15.5-2.5,32.6,5.4,42.9c8.4,11,19.7,13.1,25.6,12.5c5.2-0.5,9.8-1.9,11.3-7.5
		c1.9-7.2,2-19.7-7.1-29.6C280.1,298.9,268.8,293.6,252.6,288.8z"/>
	<path class="st0" d="M77,184.4c-3.6,16.1-2.6,33.9,5.6,44.6c8.8,11.4,20.5,13.6,26.6,13c5.4-0.6,10.1-1.9,11.7-7.8
		c2-7.5,2-20.4-7.4-30.7C105.6,194.8,93.8,189.3,77,184.4z"/>
	<path class="st0" d="M171.8,141.5c10.5,15.6,25.4,28.8,39.4,30.4c14.9,1.7,24.4-4.9,28-10.5c3.1-4.9,5.1-11.1,1.5-16.9
		c-4.7-7.6-15-17.8-29.5-18.1C199,126.2,186.9,131.5,171.8,141.5z"/>
	<path class="st0" d="M97.2,134.2c2,17.8,9.2,35.7,21.4,43.8c13,8.6,25.8,6.8,31.9,4c5.4-2.5,9.7-5.5,9.3-12.1
		c-0.6-8.4-5.1-21.7-18.4-29C130.3,134.9,116.3,133.4,97.2,134.2z"/>
	<path class="st0" d="M319.5,197.3c-13.4,8.4-25,21-26.8,33.9c-1.9,13.7,4.4,23.3,9,27.1c4,3.4,8.1,5.7,13.2,2.8
		c6.5-3.7,15.4-12.4,16.1-25.8C331.6,224.1,327.4,212.3,319.5,197.3z"/>
	<path class="st0" d="M144.4,72.4c-3.7,18.4-2.8,38.3,5.9,49.4c9.2,11.9,20.7,14,27.1,12.6c5.7-1.2,11.5-4.1,13.1-10.8
		c2.1-8.6,2.1-23.2-7.8-33.7C174.4,81,162.1,76.1,144.4,72.4z"/>
	<path class="st0" d="M192.2,49c-4.1,20.4-3.1,42.4,6.5,54.7c10.2,13.1,22.9,15.5,30,13.9c6.3-1.3,12.7-4.5,14.5-12
		c2.3-9.6,2.4-25.6-8.6-37.3C225.4,58.6,211.8,53.2,192.2,49z"/>
	<path class="st0" d="M246.9,174.4c-6.6,19.4-8.4,41-0.6,54.3c8.3,14.1,20.4,18,27.5,17.4c6.3-0.5,13-2.8,15.7-9.9
		c3.5-9,5.6-24.7-3.6-37.6C278.2,188,265.5,181,246.9,174.4z"/>
	<path class="st0" d="M183.3,242c5.6,17.9,16.1,34.9,29.1,40.4c13.8,5.9,24.8,2.2,29.8-2.1c4.4-3.8,8.1-9.1,6.2-15.8
		c-2.3-8.6-9.3-21.3-23.1-25.8C213.8,235,200.6,236.7,183.3,242z"/>
	<path class="st0" d="M320,263.5c-14.5,11.9-26.3,28-26.6,42.1c-0.4,15,7.2,23.9,13.1,26.9c5.2,2.7,11.5,4,17-0.1
		c7.1-5.4,16.3-16.6,15.2-31.1C337.9,289.2,331.4,277.6,320,263.5z"/>
	<path class="st0" d="M271.5,101.2c-14.5,11.9-26.3,28-26.6,42.1c-0.3,15,7.2,23.9,13.1,26.9c5.2,2.7,11.5,4.1,17-0.1
		c7.1-5.4,16.3-16.6,15.2-31.1C289.3,126.9,282.9,115.3,271.5,101.2z"/>
	<path class="st0" d="M337.4,101.5c-18.5,7.4-35.5,19.9-40.3,34.1c-5.1,15.1-0.3,26.5,4.7,31.4c4.4,4.3,10.3,7.8,17.2,5.3
		c8.9-3.2,21.8-11.6,25.3-26.6C347.3,133.1,344.5,119.4,337.4,101.5z"/>
	<path class="st0" d="M382.8,120.7c-19.1,8.9-36.4,23-40.7,38.2c-4.6,16.2,1.1,27.9,6.7,32.8c4.9,4.3,11.3,7.6,18.5,4.6
		c9.2-3.8,22.3-13.5,25.2-29.4C395,153.6,391.2,139.2,382.8,120.7z"/>
	<path class="st0" d="M273.9,26.4c-14.5,11.9-26.3,28-26.6,42.1c-0.3,15,7.2,23.9,13.1,26.9c5.2,2.7,11.5,4.1,17-0.1
		c7.1-5.4,16.3-16.6,15.2-31.1C291.8,52,285.3,40.5,273.9,26.4z"/>
	<path class="st0" d="M333.4,33.6c-16.8,6.1-32.5,17.3-37.5,31.1c-5.3,14.7-0.6,26.7,3.6,32c3.7,4.7,7.7,8.2,13.9,6.2
		c8-2.5,19.9-10,23.8-24.7C340.5,65.9,338.7,52,333.4,33.6z"/>
	<path class="st0" d="M500.8,151.4c-17.5,3.6-34.7,12.5-41.6,25.4c-7.4,13.8-4.4,26.4-1,32.2c3,5.1,6.4,9.2,12.9,8.1
		c8.3-1.3,21.1-7.1,27.1-21C503.2,184.4,503.4,170.3,500.8,151.4z"/>
	<path class="st0" d="M176.4,446.1c17.4,8.5,38,12.5,52.5,6c15.5-6.8,21.3-19.6,22.3-26.8c0.9-6.4,0.6-12.1-5.6-15.5
		c-8-4.4-22.8-8.1-37.2-0.1C196.3,416.3,186.8,428.2,176.4,446.1z"/>
	<path class="st0" d="M467.6,406.5c-9,15.4-22.9,28.9-37.3,31.4c-15.4,2.6-26.4-4.2-30.8-9.3c-3.9-4.5-6.6-9-3.6-14.8
		c3.9-7.5,13.4-17.8,28.5-19C437,393.7,450.4,398,467.6,406.5z"/>
	<path class="st0" d="M388.7,338.2c-10.1,12.2-24.2,22-37.2,22c-13.8,0.1-22.5-7.5-25.6-12.6c-2.8-4.5-4.5-8.8-1-13.5
		c4.5-6,14.3-13.6,27.7-12.5C363.8,322.6,374.9,328.3,388.7,338.2z"/>
	<path class="st0" d="M540.1,264c-3.5,18.5-12,36.5-24.2,43.5c-13,7.5-24.4,5.1-29.9,1.4c-4.8-3.3-9-8.1-8-15
		c1.3-8.8,6.8-22.2,20-28.2C509,260.6,522.3,260.7,540.1,264z"/>
	<path class="st0" d="M487.8,385c-16.7,8.6-36.1,13.1-49.2,7.9c-13.9-5.6-19.1-16-19.5-22.6c-0.4-5.8,0.8-12.1,6.8-15.6
		c7.7-4.4,21.7-8.4,34.5-1.8C471.3,358.5,479.4,369,487.8,385z"/>
	<path class="st0" d="M530.4,331.7c-10.2,14.6-25.1,27-39.7,28.2c-15.5,1.4-26-6.3-30-11.7c-3.5-4.7-5.9-9.5-2.4-15
		c4.5-7.1,14.8-16.6,30-16.7C501,316.5,514,321.8,530.4,331.7z"/>
	<path class="st0" d="M417.5,376.2c-10.7,15.3-26.2,28.1-41.4,29.4c-16.2,1.4-27-6.6-31.2-12.2c-3.7-4.9-6.2-9.9-2.5-15.7
		c4.7-7.4,15.4-17.4,31.3-17.4C386.9,360.4,400.4,366,417.5,376.2z"/>
	<path class="st0" d="M395.5,445.2c-17.9,8.8-39.1,12.9-54.2,6.2c-16-7-22-20.2-23-27.6c-0.9-6.6-0.7-12.5,5.8-16
		c8.2-4.5,23.5-8.3,38.4-0.1C374.9,414.5,384.8,426.7,395.5,445.2z"/>
	<path class="st0" d="M475,129.7c-5,17.2-15.1,33.6-28.5,39.6c-14.3,6.3-26.6,2.4-32.2-1.4c-4.9-3.4-8.7-7.1-7.1-13.5
		c2-8.2,8.6-20.5,23-25.4C442.3,124.8,456.3,125.7,475,129.7z"/>
	<path class="st0" d="M402.5,48.5c-3.5,18.5-12,36.5-24.2,43.5c-13,7.5-24.4,5.1-29.9,1.4c-4.8-3.3-9-8.2-8-15
		c1.3-8.8,6.8-22.2,20-28.2C371.4,45.1,384.6,45.2,402.5,48.5z"/>
	<path class="st0" d="M534.7,209.6c-3.5,18.5-12,36.5-24.2,43.5c-13,7.5-24.4,5.1-29.9,1.4c-4.8-3.3-9-8.1-8-15
		c1.3-8.8,6.8-22.2,20-28.2C503.6,206.2,516.9,206.3,534.7,209.6z"/>
	<path class="st0" d="M451.3,89.8c-8.4,15.8-21.7,29.8-36,32.9c-15.3,3.2-26.5-3.2-31.2-8c-4.1-4.3-7-8.7-4.2-14.7
		c3.6-7.6,12.7-18.3,27.8-20.2C420.3,78.3,433.9,82,451.3,89.8z"/>
	<path class="st0" d="M395.5,196.1c0.8,18.6-3.8,38.2-15.1,48.5c-12,10.9-25.5,11.1-32.3,9.2c-5.9-1.7-10.9-4.2-11.5-11
		c-0.8-8.7,1.8-23.1,14.4-32.8C361.6,202,375.7,198.2,395.5,196.1z"/>
	<path class="st0" d="M412.7,274.3c-10.7,15.3-26.2,28.1-41.4,29.4c-16.2,1.4-27-6.6-31.2-12.2c-3.7-4.9-6.2-9.9-2.5-15.7
		c4.7-7.4,15.4-17.4,31.3-17.4C382.1,258.5,395.7,264,412.7,274.3z"/>
	<path class="st0" d="M453.7,172.4c1.5,18.6-2.2,38.3-13.1,49.1c-11.6,11.4-25,12.2-31.9,10.5c-6-1.4-11.1-3.7-11.9-10.5
		c-1.1-8.7,0.8-23.2,13-33.3C420,179.8,434,175.4,453.7,172.4z"/>
	<path class="st0" d="M469.2,315.2c-13.9,15.9-33,28.4-50.4,28c-18.4-0.5-29.6-10.9-33.7-17.7c-3.5-6-5.7-11.9-0.8-18
		c6.2-7.8,19.6-17.6,37.4-15.6C436.7,293.5,451.3,301.5,469.2,315.2z"/>
	<path class="st0" d="M485.6,270.2c-16.9,10.7-37.5,17-53.2,12.1c-16.6-5.3-24.1-17.7-25.9-25c-1.6-6.4-2-12.4,4-16.6
		c7.7-5.4,22.4-10.8,38.1-4.3C461.7,241.9,472.9,253,485.6,270.2z"/>
</g>
<g>
	<path class="st1" d="M239.7,360.5c-2.9,16.5-1.2,34.4,7.6,44.9c9.4,11.2,21.4,13,27.6,12c5.5-0.8,10.2-2.4,11.5-8.4
		c1.7-7.7,1.2-20.8-8.9-30.8C269.2,369.8,257,364.8,239.7,360.5z"/>
	<path class="st1" d="M235.1,219.5c-2.9,16.4-1.2,34.4,7.6,44.9c9.4,11.2,21.4,13,27.6,12c5.5-0.8,10.2-2.4,11.5-8.4
		c1.7-7.7,1.2-20.8-8.9-30.8C264.6,228.9,252.5,223.8,235.1,219.5z"/>
	<path class="st1" d="M211.3,264.1c-2.4,13.7-1,28.6,6.4,37.3c7.8,9.3,17.7,10.8,22.9,10c4.6-0.7,8.5-2,9.6-7
		c1.4-6.4,1-17.3-7.4-25.6C235.8,271.9,225.7,267.7,211.3,264.1z"/>
	<path class="st1" d="M223.8,311.9c-2.4,13.7-1,28.6,6.4,37.3c7.8,9.3,17.8,10.8,22.9,10c4.6-0.7,8.5-2,9.6-7
		c1.4-6.4,1-17.3-7.4-25.6C248.3,319.7,238.2,315.5,223.8,311.9z"/>
	<path class="st1" d="M234.9,455.4c13.1,4.5,28.1,5.5,37.9-0.4c10.4-6.2,13.4-15.8,13.5-21c0.1-4.6-0.6-8.7-5.4-10.5
		c-6.1-2.4-16.9-3.7-26.5,3.2C246.5,432.5,240.7,441.8,234.9,455.4z"/>
	<path class="st1" d="M261.1,285.5c-4.3,15.9-4.6,33.3,2.3,43.5c7.3,10.9,17.2,13.4,23,12.6c5-0.7,10.3-2.9,12.1-8.7
		c2.4-7.4,3.2-20.1-4.8-29.9C286.8,294.9,276.3,289.9,261.1,285.5z"/>
	<path class="st1" d="M170.1,392.2c11.2,13.6,26.1,24.6,39.3,24.9c14,0.3,22.3-6.7,25.1-12.2c2.5-4.8,3.8-10.7-0.1-15.9
		c-5-6.6-15.5-15.2-29-14.3C194.1,375.5,183.2,381.6,170.1,392.2z"/>
	<path class="st1" d="M107,238.4c3.6,17.2,11.8,33.9,23.3,40.3c12.3,6.8,22.9,4.4,27.9,0.8c4.4-3.1,8.3-7.8,7.3-14.1
		c-1.4-8.2-6.7-20.7-19.1-26.1C136,234.7,123.6,235,107,238.4z"/>
	<path class="st1" d="M370.6,282c3,17.2,1.2,35.9-8,46.9c-9.8,11.7-22.3,13.5-28.8,12.6c-5.7-0.8-10.6-2.5-12-8.7
		c-1.8-8-1.2-21.7,9.2-32.2C339.8,291.8,352.5,286.5,370.6,282z"/>
	<path class="st1" d="M343.2,235.5c2.7,15.4,1.1,32.2-7.1,42c-8.8,10.4-20,12.1-25.8,11.3c-5.1-0.7-9.5-2.2-10.8-7.8
		c-1.6-7.2-1.1-19.5,8.3-28.8C315.6,244.3,326.9,239.6,343.2,235.5z"/>
	<path class="st1" d="M170.6,329c2.4,15.5,9.4,30.9,20.4,37.5c11.7,7.1,22.9,5,28.1,2.3c4.6-2.4,8.3-5.2,7.7-10.9
		c-0.8-7.3-5.2-18.8-17.2-24.7C199.5,328.4,187.2,327.6,170.6,329z"/>
	<path class="st1" d="M167.4,230.7c-2.4,13.8-1,28.9,6.4,37.7c7.9,9.4,17.9,10.9,23.1,10.1c4.6-0.7,8.6-2,9.7-7
		c1.4-6.4,1-17.4-7.4-25.9C192.2,238.5,182,234.3,167.4,230.7z"/>
	<path class="st1" d="M107.8,314.5c4.3,15,13.2,29.5,25,34.6c12.5,5.5,23.3,2.1,28.2-1.2c4.3-2.9,7.6-6.2,6.2-11.8
		c-1.7-7.2-7.6-18-20.2-22.3C136.5,310.2,124.2,311,107.8,314.5z"/>
	<path class="st1" d="M197.7,51.1c3.7,12.8,11.2,25.1,21.2,29.5c10.6,4.7,19.8,1.8,24-1.1c3.6-2.5,6.4-5.3,5.3-10
		c-1.5-6.1-6.4-15.3-17.1-19C222.1,47.5,211.6,48.1,197.7,51.1z"/>
	<path class="st1" d="M84.3,276.5c3.7,12.8,11.2,25.1,21.2,29.5c10.6,4.7,19.8,1.8,24-1.1c3.6-2.5,6.4-5.3,5.3-10
		c-1.5-6.1-6.4-15.3-17.2-19C108.7,272.8,98.2,273.5,84.3,276.5z"/>
	<path class="st1" d="M150.3,291.3c6,14.5,16.4,27.8,28.7,31.6c13,4.1,23.4-0.5,27.9-4.4c3.9-3.4,6.8-7,4.9-12.4
		c-2.5-6.9-9.5-17-22.5-19.9C178.3,283.8,166.1,286,150.3,291.3z"/>
	<path class="st1" d="M74,335.1c3.4,11.7,10.3,23,19.5,27c9.8,4.3,18.2,1.6,22-1c3.3-2.3,5.9-4.9,4.9-9.2c-1.3-5.6-5.9-14-15.7-17.4
		C96.4,331.8,86.8,332.4,74,335.1z"/>
	<path class="st1" d="M99.4,184.4c-2.9,13-2.1,27.4,4.6,36.1c7.1,9.2,16.6,11,21.6,10.5c4.4-0.4,8.2-1.6,9.5-6.3
		c1.6-6.1,1.6-16.5-6-24.9C122.6,192.9,113.1,188.4,99.4,184.4z"/>
	<path class="st1" d="M250.1,183.8c-2.7,13-1.8,27.4,4.9,36c7.2,9.1,16.7,10.9,21.7,10.3c4.4-0.5,8.2-1.6,9.4-6.4
		c1.6-6.1,1.5-16.5-6.2-24.8C273.3,192,263.8,187.7,250.1,183.8z"/>
	<path class="st1" d="M192.6,203.2c-2.7,13-1.8,27.4,4.9,36c7.2,9.1,16.7,10.9,21.7,10.3c4.4-0.5,8.2-1.6,9.4-6.4
		c1.6-6.1,1.5-16.5-6.2-24.8C215.8,211.4,206.3,207.1,192.6,203.2z"/>
	<path class="st1" d="M171.5,113.2c-2.9,13-2.1,27.4,4.6,36c7.1,9.2,16.6,11,21.6,10.5c4.4-0.4,8.2-1.6,9.5-6.3
		c1.6-6.1,1.6-16.5-6-24.9C194.6,121.6,185.1,117.2,171.5,113.2z"/>
	<path class="st1" d="M70,221.7c-2.9,13-2.1,27.4,4.6,36c7.1,9.2,16.6,11,21.5,10.5c4.4-0.5,8.2-1.6,9.5-6.3
		c1.6-6.1,1.7-16.5-6-24.9C93.2,230.2,83.7,225.7,70,221.7z"/>
	<path class="st1" d="M61.8,288.6c-1.2,12.1,1,25,8,32.2c7.4,7.6,16.2,8.2,20.7,7.2c3.9-0.9,7.3-2.3,7.9-6.7
		c0.8-5.7-0.3-15.1-8.1-21.9C83.6,293.8,74.6,290.8,61.8,288.6z"/>
	<path class="st1" d="M215.3,124.7c-2.7,13-1.8,27.4,4.9,36c7.2,9.1,16.7,10.9,21.7,10.3c4.4-0.5,8.2-1.6,9.4-6.4
		c1.6-6.1,1.5-16.5-6.2-24.8C238.6,132.9,229,128.6,215.3,124.7z"/>
	<path class="st1" d="M261,135.2c-4.6,15.1-5.5,31.8,0.8,41.8c6.7,10.7,16.1,13.4,21.6,12.8c4.9-0.5,9.9-2.5,11.9-8
		c2.5-7,3.7-19.2-3.7-28.8C285.4,144.9,275.5,139.8,261,135.2z"/>
	<path class="st1" d="M129.5,144.1c1.7,14.9,7.7,30,18,36.8c10.9,7.2,21.7,5.8,26.8,3.4c4.5-2.1,8.2-4.6,7.8-10.1
		c-0.5-7.1-4.2-18.2-15.4-24.4C157.3,144.7,145.5,143.4,129.5,144.1z"/>
	<path class="st1" d="M133.3,186.8c1.7,14.9,7.7,30,18,36.8c10.9,7.2,21.7,5.8,26.8,3.4c4.5-2.1,8.2-4.6,7.8-10.1
		c-0.5-7.1-4.2-18.2-15.4-24.4C161.1,187.4,149.4,186.1,133.3,186.8z"/>
	<path class="st1" d="M212.2,87.1c1.8,14.9,8,29.9,18.4,36.6c11,7.1,21.8,5.5,26.9,3.1c4.5-2.1,8.1-4.7,7.7-10.2
		c-0.5-7.1-4.4-18.2-15.7-24.2C240,87.4,228.3,86.2,212.2,87.1z"/>
	<path class="st1" d="M188.3,166.6c1.8,14.9,8,29.9,18.4,36.6c11,7.1,21.8,5.5,26.9,3.1c4.5-2.1,8.1-4.7,7.7-10.2
		c-0.5-7.1-4.4-18.2-15.7-24.2C216.1,166.9,204.4,165.7,188.3,166.6z"/>
	<path class="st1" d="M173.8,70.4c-2.9,13.1-2.1,27.7,4.6,36.4c7.2,9.3,16.7,11.2,21.8,10.6c4.4-0.4,8.3-1.6,9.6-6.3
		c1.6-6.1,1.7-16.7-6.1-25.1C197.2,79,187.6,74.5,173.8,70.4z"/>
	<path class="st1" d="M127.3,97.6c-2.9,13.1-2.1,27.7,4.6,36.4c7.2,9.3,16.7,11.1,21.8,10.6c4.4-0.4,8.3-1.6,9.6-6.3
		c1.6-6.1,1.7-16.7-6.1-25.1C150.7,106.1,141.1,101.6,127.3,97.6z"/>
	<path class="st1" d="M94.3,138.3c-2.9,13.1-2.1,27.7,4.6,36.4c7.2,9.3,16.7,11.1,21.8,10.6c4.4-0.4,8.3-1.6,9.6-6.3
		c1.6-6.1,1.7-16.7-6.1-25.1C117.7,146.8,108.1,142.4,94.3,138.3z"/>
	<path class="st1" d="M317.4,26.8c-11.3,7.1-21,17.7-22.5,28.5c-1.6,11.5,3.7,19.5,7.6,22.7c3.4,2.8,6.9,4.8,11.1,2.4
		c5.5-3.1,13-10.4,13.5-21.7C327.5,49.3,324.1,39.4,317.4,26.8z"/>
	<path class="st1" d="M486.9,111c-13.2-1.6-27.5,0.4-35.5,7.9c-8.5,7.9-9.4,17.5-8.5,22.4c0.9,4.3,2.3,8,7.1,8.8
		c6.2,1.1,16.6,0.1,24.2-8.3C480.7,134.9,484.2,125,486.9,111z"/>
	<path class="st1" d="M437.2,62c-13.2-1.7-27.5,0.5-35.5,7.9c-8.5,7.9-9.4,17.5-8.5,22.4c0.9,4.3,2.3,8,7.1,8.8
		c6.2,1.1,16.6,0.1,24.2-8.3C430.9,85.8,434.5,75.9,437.2,62z"/>
	<path class="st1" d="M269.8,28.2c-10.5,8.4-18.9,20.3-19.1,31.3c-0.2,11.7,6.1,19.2,10.4,21.9c3.8,2.4,7.5,3.9,11.4,1
		c5.1-3.8,11.7-12,11-23.4C282.8,49.5,278,40,269.8,28.2z"/>
	<path class="st1" d="M186.8,455.6c13.3,4,28.3,4.4,37.8-1.9c10.1-6.6,12.8-16.4,12.6-21.6c-0.1-4.6-1-8.6-5.8-10.3
		c-6.2-2.2-17-3-26.3,4.3C197.4,432.2,192,441.7,186.8,455.6z"/>
	<path class="st1" d="M112.1,373.8c9.8,9.8,22.9,17.2,34.2,16.2c12.1-1.1,19-8.4,21.3-13c2.1-4.1,3.2-8.1-0.2-11.8
		c-4.4-4.8-13.6-10.7-25.2-8.7C132.5,358.2,123.3,364.1,112.1,373.8z"/>
	<path class="st1" d="M119.2,412c9.8,9.8,22.9,17.2,34.2,16.2c12.1-1,19-8.4,21.3-13c2.1-4.1,3.2-8.1-0.2-11.8
		c-4.4-4.8-13.6-10.7-25.2-8.7C139.7,396.4,130.4,402.3,119.2,412z"/>
	<path class="st1" d="M512,259.9c-3.7,12.8-11.2,25.1-21.2,29.5c-10.6,4.7-19.8,1.8-24-1.1c-3.6-2.5-6.5-5.3-5.3-10
		c1.5-6.1,6.5-15.3,17.1-19C487.6,256.2,498,256.8,512,259.9z"/>
	<path class="st1" d="M518.4,190.7c-3.7,12.8-11.2,25.1-21.2,29.5c-10.6,4.7-19.8,1.8-24-1.1c-3.6-2.5-6.5-5.3-5.3-10
		c1.5-6.1,6.5-15.3,17.1-19C494,187.1,504.5,187.7,518.4,190.7z"/>
	<path class="st1" d="M509.1,372.1c-8.8,10-20.9,17.8-31.9,17.5c-11.6-0.3-18.7-6.9-21.2-11.3c-2.2-3.8-3.5-7.5-0.5-11.4
		c4-4.9,12.4-11,23.6-9.7C488.7,358.3,497.9,363.4,509.1,372.1z"/>
	<path class="st1" d="M542,316.8c-12.2,5.2-26.5,7.1-36.3,2.1c-10.4-5.3-13.9-14.3-14.3-19.3c-0.4-4.4,0-8.3,4.4-10.5
		c5.6-2.7,16-4.6,25.5,1.3C529.5,295.5,535.5,304.1,542,316.8z"/>
	<path class="st1" d="M449.7,101.9c-3,15.5-10.1,30.7-20.3,36.6c-10.9,6.3-20.5,4.3-25.1,1.2c-4-2.8-7.6-6.9-6.8-12.6
		c1.1-7.4,5.7-18.7,16.8-23.7C423.6,99,434.7,99.1,449.7,101.9z"/>
	<path class="st1" d="M421.9,314.5c-3,15.5-10.1,30.7-20.3,36.6c-10.9,6.3-20.5,4.3-25.1,1.2c-4-2.8-7.6-6.9-6.8-12.6
		c1.1-7.4,5.7-18.7,16.8-23.7C395.8,311.6,406.9,311.8,421.9,314.5z"/>
	<path class="st1" d="M496.5,322.7c-14,7.2-30.3,11-41.3,6.6c-11.7-4.7-16-13.5-16.4-19c-0.3-4.9,0.7-10.2,5.7-13.1
		c6.5-3.7,18.2-7.1,29-1.5C482.5,300.5,489.3,309.3,496.5,322.7z"/>
	<path class="st1" d="M538,247.7c-11.2,5.8-24.2,8.8-33,5.3c-9.3-3.8-12.8-10.8-13.1-15.2c-0.3-3.9,0.5-8.1,4.6-10.4
		c5.2-2.9,14.5-5.6,23.2-1.2C526.9,229.9,532.3,236.9,538,247.7z"/>
	<path class="st1" d="M488,239.3c-8.6,12.3-21.1,22.7-33.4,23.7c-13.1,1.1-21.8-5.3-25.2-9.9c-3-4-5-8-2-12.6c3.8-6,12.5-14,25.2-14
		C463.3,226.5,474.2,231,488,239.3z"/>
	<path class="st1" d="M500.6,167.2c-8.3,12-20.5,22.1-32.6,23c-12.8,1-21.5-5.4-24.8-9.9c-3-3.9-4.9-7.9-2.1-12.4
		c3.7-5.8,12.1-13.6,24.6-13.5C476.3,154.5,487,159,500.6,167.2z"/>
	<path class="st1" d="M472.3,337.7c-6.5,13.5-17.2,25.8-29.1,28.8c-12.7,3.2-22.4-1.7-26.5-5.6c-3.6-3.5-6.2-7.1-4-12.1
		c2.8-6.5,10-15.8,22.6-17.9C445.9,329.1,457.4,331.7,472.3,337.7z"/>
	<path class="st1" d="M478.9,420c-9.4,9.4-21.9,16.5-32.8,15.6c-11.6-1-18.2-8-20.5-12.5c-2-3.9-3.1-7.7,0.2-11.4
		c4.2-4.6,13-10.3,24.2-8.3C459.3,405,468.1,410.7,478.9,420z"/>
	<path class="st1" d="M321.7,444c-12.8-3.5-25.2-10.9-29.8-20.8c-4.9-10.6-2.1-19.8,0.7-24c2.4-3.7,5.2-6.5,10-5.5
		c6.1,1.4,15.4,6.2,19.2,16.9C325,419.5,324.5,430,321.7,444z"/>
	<path class="st1" d="M531.3,338.3c-7.8,10.8-19.1,19.7-30,20.5c-11.6,0.8-19.2-5.1-22.2-9.1c-2.6-3.6-4.3-7.2-1.6-11.2
		c3.5-5.2,11.3-12.2,22.6-12C509.6,326.6,519.2,330.7,531.3,338.3z"/>
	<path class="st1" d="M366.9,449.6c-14.3-1.8-28.8-7.7-35.2-17.7c-6.9-10.6-5.3-21-3-25.9c2-4.3,4.5-7.8,9.8-7.4
		c6.8,0.5,17.5,4.3,23.3,15.1C366.7,422.9,367.8,434.2,366.9,449.6z"/>
	<path class="st1" d="M399.5,364.7c-8.9,15.1-22.4,28.2-36.6,30.6c-15.1,2.5-25.8-4.2-30.2-9.1c-3.8-4.4-6.5-8.8-3.5-14.5
		c3.8-7.3,13.2-17.4,28-18.6C369.6,352.1,382.8,356.3,399.5,364.7z"/>
	<path class="st1" d="M452.2,269.5c-5.6,16.6-16.2,32.2-29.6,37.5c-14.2,5.5-26.1,1.2-31.4-2.8c-4.6-3.5-8.2-7.3-6.4-13.5
		c2.3-7.9,9.4-19.7,23.6-23.9C420.4,263.3,434.1,264.8,452.2,269.5z"/>
	<path class="st1" d="M406.8,235.3c-2.4,14.9-9.3,29.8-20,36.1c-11.4,6.7-22.1,4.7-27.1,2c-4.5-2.3-8-5.1-7.4-10.6
		c0.8-7.1,5.2-18.1,16.8-23.7C378.8,234.5,390.7,233.8,406.8,235.3z"/>
	<path class="st1" d="M459.8,387.4c-10.5,10.5-24.5,18.5-36.7,17.4c-13-1.1-20.4-9-22.9-14c-2.2-4.4-3.5-8.7,0.2-12.7
		c4.7-5.2,14.6-11.5,27-9.3C437.9,370.6,447.8,376.9,459.8,387.4z"/>
	<path class="st1" d="M419.9,448.1c-17.6-0.5-35.6-5.5-44-15.8c-8.9-10.9-8.5-21.9-5.8-27.5c2.3-5,6.2-9.6,12.7-9.7
		c8.4-0.1,21.7,2.9,29.2,14.2C418.3,418.8,420.2,431.1,419.9,448.1z"/>
	<path class="st1" d="M285.7,74.2c12.3,8.6,22.6,21.2,23.6,33.5c1.1,13.1-5.4,21.8-9.9,25.2c-4,3-8,4.9-12.7,2
		c-6-3.8-14-12.5-13.9-25.3C272.8,98.9,277.4,87.9,285.7,74.2z"/>
	<path class="st1" d="M347.6,128.3c-1.2,13.2-6.3,26.7-15.3,32.9c-9.6,6.6-19.1,5.5-23.7,3.5c-4-1.8-7.3-4-7.1-8.9
		c0.3-6.3,3.5-16.2,13.3-21.9C323,129.3,333.4,127.9,347.6,128.3z"/>
	<path class="st1" d="M395.2,205.8c-6.1,12.5-16,23.7-27.1,26.4c-11.8,2.9-20.7-1.7-24.4-5.4c-3.3-3.2-5.7-6.6-3.6-11.3
		c2.6-6,9.4-14.6,21-16.4C370.8,197.7,381.4,200.2,395.2,205.8z"/>
	<path class="st1" d="M321.7,172.8c9.2,12.6,15.1,28.5,12,41c-3.3,13.3-12.7,19.7-18.3,21.5c-4.9,1.6-9.6,2.2-13.1-2.3
		c-4.6-5.8-9.5-17-5.2-29.6C300.7,192.8,308.8,183.5,321.7,172.8z"/>
	<path class="st1" d="M383,87.2c5.8,12,8.5,26.1,4,36.1c-4.7,10.6-13.5,14.6-18.5,15.3c-4.4,0.6-8.3,0.4-10.7-3.9
		c-3-5.5-5.5-15.7,0-25.6C362.4,100.9,370.6,94.3,383,87.2z"/>
	<path class="st1" d="M372.5,143.1c5.8,12,8.5,26.1,4,36.1c-4.7,10.6-13.5,14.6-18.5,15.3c-4.4,0.6-8.3,0.4-10.7-3.9
		c-3-5.5-5.5-15.7,0-25.6C352,156.7,360.1,150.2,372.5,143.1z"/>
	<path class="st1" d="M317.5,337.8c5.8,12,8.5,26.1,4,36.1c-4.7,10.6-13.5,14.6-18.5,15.3c-4.4,0.6-8.3,0.4-10.7-3.9
		c-3-5.5-5.5-15.7,0-25.6C297,351.4,305.1,344.9,317.5,337.8z"/>
	<path class="st1" d="M341.2,65.7c8.2,13.5,13.1,29.5,9.4,40.8c-3.9,12-12.4,16.9-17.8,17.7c-4.9,0.7-10.2,0-13.5-4.8
		c-4.1-6.2-8.3-17.7-3.5-28.9C319.9,81.1,328.3,73.7,341.2,65.7z"/>
	<path class="st1" d="M457.1,197.2c-5.5,14.8-15.1,28.5-26.2,32.6c-11.8,4.4-21,0.8-24.9-3.1c-3.5-3.4-6.4-8-4.5-13.6
		c2.3-7.1,8.8-17.5,20.5-20.6C431.8,190,442.8,192,457.1,197.2z"/>
	<path class="st1" d="M430,144.1c1.9,14.9-0.5,31-8.9,40c-8.9,9.6-19.8,10.7-25.3,9.6c-4.9-0.9-9-2.6-10-8c-1.2-7-0.1-18.7,9.3-27.3
		C403.1,151.2,414.2,147.2,430,144.1z"/>
	<path class="st1" d="M383.6,37.1c5.9,12.1,8.6,26.4,4.1,36.5C382.8,84.3,374,88.3,368.9,89c-4.4,0.6-8.4,0.4-10.8-3.9
		c-3-5.6-5.5-15.8,0-25.8C362.8,50.8,371.1,44.2,383.6,37.1z"/>
</g>
<g id="Dummy_Text">
</g>
</svg>
