<?xml version="1.0" encoding="utf-8"?>
<!-- Generator: Adobe Illustrator 25.1.0, SVG Export Plug-In . SVG Version: 6.00 Build 0)  -->
<svg version="1.1" id="Layer_1" xmlns="http://www.w3.org/2000/svg" xmlns:xlink="http://www.w3.org/1999/xlink" x="0px" y="0px"
	 viewBox="0 0 595.28 568.89" style="enable-background:new 0 0 595.28 568.89;" xml:space="preserve">
<style type="text/css">
	.st0{fill:#70AE4B;}
	.st1{fill:#C6D629;}
</style>
<g id="_x31_6:12_Rectangle">
</g>
<g>
	<path class="st0" d="M159.43,345.97c5.29,18.32,16.1,35.91,30.43,42.23c15.24,6.73,28.41,2.54,34.34-1.52
		c5.22-3.58,9.24-7.58,7.6-14.38c-2.1-8.74-9.23-21.93-24.57-27.17C194.36,340.74,179.37,341.66,159.43,345.97z"/>
	<path class="st0" d="M245.7,258.09c4.4,15.21,13.37,29.81,25.27,35.08c12.65,5.59,23.6,2.1,28.51-1.26
		c4.34-2.96,7.68-6.29,6.32-11.95c-1.75-7.26-7.67-18.21-20.41-22.56C274.72,253.74,262.27,254.51,245.7,258.09z"/>
	<path class="st0" d="M80.33,306.16c4.77,16.52,14.52,32.37,27.44,38.08c13.74,6.07,25.62,2.29,30.95-1.37
		c4.71-3.22,8.34-6.83,6.86-12.97c-1.89-7.88-8.34-19.77-22.16-24.49C111.82,301.44,98.31,302.27,80.33,306.16z"/>
	<path class="st0" d="M118.92,294.51c14.76,10.26,33.11,16.7,47.35,12.84c15.15-4.12,22.3-15.03,24.22-21.51
		c1.7-5.72,2.27-11.04-2.98-15.05c-6.72-5.15-19.78-10.55-34.12-5.29C141.38,269.93,130.95,279.51,118.92,294.51z"/>
	<path class="st0" d="M144.75,443.79c15.72-1.93,31.56-8.47,38.64-19.38c7.53-11.61,5.82-22.97,3.28-28.35
		c-2.24-4.75-4.99-8.58-10.79-8.13c-7.44,0.57-19.2,4.69-25.51,16.57C145.05,414.45,143.84,426.87,144.75,443.79z"/>
	<path class="st0" d="M248.65,469.04c16.38-2.01,32.89-8.83,40.27-20.2c7.85-12.1,6.06-23.94,3.41-29.55
		c-2.33-4.95-5.2-8.94-11.25-8.47c-7.75,0.59-20,4.89-26.59,17.27C248.97,438.46,247.7,451.4,248.65,469.04z"/>
	<path class="st0" d="M120.39,197.69c3.54,18.46,11.98,36.48,24.2,43.51c13.01,7.48,24.42,5.09,29.87,1.39
		c4.82-3.28,9.05-8.15,8.03-15c-1.31-8.79-6.8-22.25-19.98-28.25C151.47,194.3,138.21,194.44,120.39,197.69z"/>
	<path class="st0" d="M167.36,173.93c3.89,20.33,13.18,40.16,26.64,47.9c14.32,8.23,26.88,5.61,32.89,1.53
		c5.3-3.61,9.96-8.97,8.84-16.51c-1.44-9.67-7.48-24.49-21.99-31.1C201.58,170.21,186.98,170.36,167.36,173.93z"/>
	<path class="st0" d="M87.1,389.41c18.04,9.33,38.98,14.2,53.11,8.5c15.04-6.05,20.64-17.33,21.13-24.44
		c0.44-6.28-0.87-13.13-7.37-16.83c-8.34-4.76-23.43-9.09-37.33-1.91C104.98,360.76,96.24,372.11,87.1,389.41z"/>
	<path class="st0" d="M55.66,261.14c10.23,14.64,25.13,26.96,39.74,28.25c15.54,1.36,25.96-6.34,29.98-11.73
		c3.55-4.74,5.91-9.5,2.4-15.05c-4.5-7.12-14.82-16.65-30-16.67C85.05,245.94,72.04,251.29,55.66,261.14z"/>
	<path class="st0" d="M168.35,310.42c11.25,16.1,27.62,29.64,43.69,31.06c17.09,1.5,28.53-6.97,32.96-12.89
		c3.9-5.21,6.5-10.45,2.64-16.55c-4.95-7.82-16.29-18.3-32.98-18.32C200.66,293.71,186.35,299.59,168.35,310.42z"/>
	<path class="st0" d="M227.88,345.73c5.13,17.9,15.63,35.09,29.6,41.3c14.86,6.61,27.73,2.54,33.52-1.4
		c5.11-3.47,9.04-7.37,7.46-14.02c-2.03-8.54-8.96-21.42-23.93-26.59C262,340.7,247.36,341.57,227.88,345.73z"/>
	<path class="st0" d="M265.21,424.21c10.67,15.26,26.19,28.1,41.42,29.44c16.2,1.42,27.05-6.61,31.24-12.22
		c3.7-4.94,6.16-9.91,2.5-15.69c-4.69-7.42-15.44-17.35-31.27-17.37C295.85,408.37,282.28,413.95,265.21,424.21z"/>
	<path class="st0" d="M252.55,288.8c-3.42,15.46-2.51,32.58,5.42,42.89c8.44,10.96,19.72,13.13,25.64,12.53
		c5.23-0.53,9.75-1.85,11.27-7.47c1.94-7.21,1.96-19.66-7.14-29.57C280.11,298.85,268.81,293.57,252.55,288.8z"/>
	<path class="st0" d="M76.96,184.35c-3.55,16.07-2.61,33.85,5.63,44.55c8.77,11.38,20.48,13.64,26.64,13.01
		c5.43-0.55,10.13-1.92,11.7-7.76c2.01-7.49,2.04-20.43-7.41-30.72C105.58,194.79,93.84,189.31,76.96,184.35z"/>
	<path class="st0" d="M171.79,141.53c10.53,15.57,25.4,28.79,39.41,30.42c14.9,1.74,24.45-4.95,27.99-10.52
		c3.13-4.92,5.11-11.06,1.46-16.94c-4.67-7.56-15.03-17.76-29.5-18.08C199.01,126.16,186.88,131.52,171.79,141.53z"/>
	<path class="st0" d="M97.19,134.23c1.98,17.75,9.17,35.69,21.39,43.82c13,8.63,25.83,6.84,31.93,4.04
		c5.39-2.46,9.74-5.52,9.31-12.07c-0.55-8.4-5.05-21.7-18.38-28.98C130.27,134.93,116.28,133.41,97.19,134.23z"/>
	<path class="st0" d="M319.46,197.34c-13.43,8.39-25.02,21.03-26.81,33.91c-1.91,13.7,4.44,23.27,9.02,27.08
		c4.04,3.36,8.15,5.66,13.22,2.8c6.5-3.67,15.41-12.37,16.11-25.81C331.59,224.05,327.44,212.29,319.46,197.34z"/>
	<path class="st0" d="M144.4,72.37c-3.73,18.42-2.76,38.3,5.9,49.44c9.2,11.86,20.66,13.98,27.11,12.61
		c5.7-1.21,11.47-4.1,13.12-10.83c2.12-8.63,2.15-23.16-7.77-33.72C174.44,81.02,162.12,76.12,144.4,72.37z"/>
	<path class="st0" d="M192.21,49.04c-4.13,20.39-3.05,42.38,6.52,54.7c10.18,13.12,22.86,15.47,30,13.95
		c6.31-1.33,12.69-4.54,14.52-11.98c2.34-9.55,2.38-25.63-8.6-37.31C225.45,58.61,211.82,53.19,192.21,49.04z"/>
	<path class="st0" d="M246.92,174.44c-6.63,19.39-8.38,41.02-0.6,54.28c8.27,14.12,20.37,18.02,27.53,17.45
		c6.33-0.5,12.98-2.81,15.71-9.85c3.5-9.04,5.58-24.74-3.65-37.55C278.18,188.02,265.55,180.99,246.92,174.44z"/>
	<path class="st0" d="M183.3,242c5.64,17.93,16.11,34.85,29.07,40.42c13.79,5.93,24.84,2.24,29.83-2.08
		c4.41-3.81,8.06-9.13,6.25-15.82c-2.32-8.58-9.32-21.31-23.11-25.75C213.77,235.04,200.62,236.72,183.3,242z"/>
	<path class="st0" d="M320,263.51c-14.52,11.94-26.3,27.98-26.61,42.08c-0.35,15,7.21,23.88,13.08,26.89
		c5.18,2.66,11.48,4.05,17.01-0.12c7.09-5.36,16.28-16.62,15.24-31.06C337.85,289.17,331.38,277.6,320,263.51z"/>
	<path class="st0" d="M271.49,101.22c-14.52,11.94-26.3,27.98-26.61,42.08c-0.34,15,7.21,23.88,13.08,26.89
		c5.18,2.66,11.48,4.06,17.01-0.12c7.09-5.36,16.27-16.62,15.24-31.06C289.34,126.88,282.87,115.3,271.49,101.22z"/>
	<path class="st0" d="M337.43,101.48c-18.5,7.45-35.53,19.92-40.34,34.08c-5.13,15.07-0.32,26.46,4.66,31.37
		c4.39,4.34,10.32,7.77,17.24,5.3c8.88-3.17,21.77-11.62,25.33-26.56C347.31,133.14,344.45,119.37,337.43,101.48z"/>
	<path class="st0" d="M382.76,120.74c-19.1,8.89-36.38,22.99-40.67,38.21c-4.58,16.19,1.13,27.93,6.66,32.85
		c4.88,4.34,11.33,7.62,18.49,4.63c9.2-3.84,22.32-13.47,25.24-29.44C394.95,153.59,391.17,139.22,382.76,120.74z"/>
	<path class="st0" d="M273.89,26.39c-14.52,11.94-26.3,27.98-26.61,42.08c-0.34,15,7.21,23.88,13.08,26.89
		c5.18,2.66,11.48,4.06,17.01-0.12c7.09-5.36,16.27-16.62,15.24-31.06C291.75,52.05,285.28,40.47,273.89,26.39z"/>
	<path class="st0" d="M333.37,33.62c-16.79,6.11-32.53,17.33-37.53,31.13c-5.32,14.67-0.56,26.71,3.61,31.98
		c3.67,4.65,7.66,8.16,13.92,6.2c8.04-2.52,19.9-10.03,23.83-24.7C340.48,65.94,338.67,51.98,333.37,33.62z"/>
	<path class="st0" d="M500.79,151.38c-17.49,3.63-34.69,12.46-41.63,25.39c-7.38,13.75-4.4,26.35-1.04,32.17
		c2.96,5.13,6.4,9.18,12.88,8.14c8.31-1.33,21.14-7.05,27.14-21.01C503.17,184.38,503.38,170.31,500.79,151.38z"/>
	<path class="st0" d="M176.36,446.1c17.37,8.55,37.96,12.46,52.51,6.04c15.47-6.84,21.33-19.59,22.33-26.81
		c0.89-6.36,0.65-12.12-5.59-15.54c-8-4.4-22.77-8.06-37.19-0.14C196.32,416.31,186.77,428.19,176.36,446.1z"/>
	<path class="st0" d="M467.56,406.49c-9.02,15.42-22.87,28.9-37.33,31.36c-15.39,2.62-26.38-4.22-30.83-9.26
		c-3.92-4.45-6.65-9.01-3.6-14.81c3.91-7.46,13.42-17.79,28.55-19.03C437.04,393.71,450.44,397.99,467.56,406.49z"/>
	<path class="st0" d="M388.66,338.23c-10.12,12.18-24.18,21.97-37.19,22.03c-13.84,0.06-22.47-7.52-25.63-12.57
		c-2.79-4.45-4.52-8.83-1.01-13.47c4.5-5.95,14.32-13.62,27.73-12.51C363.81,322.63,374.91,328.32,388.66,338.23z"/>
	<path class="st0" d="M540.11,263.96c-3.54,18.46-11.98,36.48-24.2,43.51c-13.01,7.48-24.42,5.09-29.88,1.39
		c-4.82-3.28-9.05-8.15-8.03-14.99c1.31-8.79,6.8-22.25,19.97-28.25C509.03,260.58,522.29,260.72,540.11,263.96z"/>
	<path class="st0" d="M487.83,385.05c-16.7,8.63-36.08,13.14-49.16,7.87c-13.92-5.6-19.1-16.04-19.55-22.62
		c-0.4-5.81,0.8-12.15,6.82-15.58c7.72-4.4,21.69-8.41,34.55-1.77C471.28,358.53,479.36,369.04,487.83,385.05z"/>
	<path class="st0" d="M530.36,331.69c-10.23,14.64-25.12,26.96-39.74,28.25c-15.55,1.36-25.96-6.34-29.98-11.73
		c-3.55-4.74-5.91-9.5-2.4-15.05c4.5-7.12,14.82-16.65,30-16.67C500.97,316.49,513.99,321.84,530.36,331.69z"/>
	<path class="st0" d="M417.51,376.21c-10.67,15.26-26.18,28.1-41.42,29.44c-16.2,1.42-27.05-6.61-31.24-12.22
		c-3.7-4.94-6.16-9.91-2.5-15.69c4.69-7.42,15.44-17.35,31.27-17.37C386.88,360.37,400.44,365.95,417.51,376.21z"/>
	<path class="st0" d="M395.53,445.21c-17.92,8.82-39.15,12.85-54.16,6.23c-15.96-7.05-22-20.21-23.03-27.65
		c-0.92-6.56-0.67-12.5,5.76-16.04c8.25-4.54,23.49-8.31,38.37-0.14C374.94,414.48,384.8,426.74,395.53,445.21z"/>
	<path class="st0" d="M474.99,129.74c-4.96,17.16-15.08,33.63-28.5,39.56c-14.28,6.31-26.61,2.38-32.16-1.42
		c-4.89-3.35-8.66-7.1-7.12-13.47c1.97-8.19,8.65-20.54,23.02-25.45C442.27,124.84,456.31,125.7,474.99,129.74z"/>
	<path class="st0" d="M402.45,48.45c-3.54,18.46-11.98,36.48-24.2,43.51c-13.01,7.48-24.42,5.1-29.88,1.39
		c-4.82-3.28-9.05-8.15-8.03-15c1.31-8.79,6.8-22.25,19.97-28.25C371.37,45.06,384.63,45.21,402.45,48.45z"/>
	<path class="st0" d="M534.69,209.58c-3.54,18.46-11.98,36.48-24.2,43.51c-13.01,7.48-24.42,5.1-29.88,1.39
		c-4.82-3.28-9.05-8.15-8.03-15c1.31-8.79,6.79-22.25,19.98-28.25C503.61,206.2,516.87,206.34,534.69,209.58z"/>
	<path class="st0" d="M451.31,89.81c-8.38,15.78-21.67,29.81-36.03,32.86c-15.27,3.23-26.53-3.15-31.18-8.01
		c-4.1-4.28-7.02-8.72-4.21-14.65c3.61-7.61,12.69-18.32,27.76-20.18C420.3,78.29,433.86,82.02,451.31,89.81z"/>
	<path class="st0" d="M395.54,196.08c0.75,18.6-3.83,38.22-15.14,48.51c-12.04,10.94-25.54,11.12-32.27,9.19
		c-5.94-1.69-10.9-4.16-11.48-10.97c-0.76-8.74,1.79-23.15,14.37-32.75C361.57,202.01,375.74,198.24,395.54,196.08z"/>
	<path class="st0" d="M412.74,274.29c-10.67,15.26-26.18,28.1-41.42,29.44c-16.2,1.42-27.05-6.61-31.24-12.22
		c-3.7-4.94-6.16-9.91-2.5-15.69c4.69-7.42,15.44-17.35,31.27-17.37C382.11,258.45,395.67,264.03,412.74,274.29z"/>
	<path class="st0" d="M453.69,172.45c1.52,18.56-2.24,38.34-13.11,49.1c-11.57,11.43-25.05,12.17-31.85,10.52
		c-6.01-1.45-11.06-3.7-11.94-10.48c-1.12-8.7,0.82-23.21,13-33.32C420,179.79,434,175.44,453.69,172.45z"/>
	<path class="st0" d="M469.24,315.25c-13.94,15.85-33.05,28.36-50.38,27.96c-18.43-0.45-29.65-10.86-33.66-17.71
		c-3.55-6.03-5.69-11.94-0.84-17.99c6.22-7.76,19.58-17.6,37.42-15.62C436.72,293.54,451.3,301.54,469.24,315.25z"/>
	<path class="st0" d="M485.56,270.18c-16.85,10.72-37.51,17.05-53.16,12.1c-16.63-5.27-24.07-17.69-25.91-24.98
		c-1.63-6.42-2.02-12.35,3.98-16.57c7.71-5.41,22.44-10.82,38.12-4.32C461.74,241.88,472.88,252.99,485.56,270.18z"/>
</g>
<g>
	<path class="st1" d="M239.68,360.47c-2.9,16.45-1.18,34.44,7.65,44.94c9.39,11.17,21.37,12.95,27.58,12.04
		c5.49-0.8,10.19-2.39,11.53-8.38c1.72-7.68,1.19-20.8-8.85-30.84C269.16,369.82,257.02,364.76,239.68,360.47z"/>
	<path class="st1" d="M235.13,219.54c-2.9,16.45-1.18,34.44,7.64,44.94c9.39,11.17,21.37,12.95,27.58,12.04
		c5.49-0.8,10.19-2.39,11.53-8.38c1.72-7.68,1.19-20.8-8.85-30.84C264.62,228.89,252.47,223.84,235.13,219.54z"/>
	<path class="st1" d="M211.3,264.11c-2.41,13.66-0.98,28.6,6.35,37.33c7.8,9.27,17.74,10.75,22.91,10c4.55-0.66,8.46-1.99,9.57-6.96
		c1.43-6.38,0.98-17.28-7.35-25.61C235.79,271.88,225.71,267.68,211.3,264.11z"/>
	<path class="st1" d="M223.76,311.93c-2.41,13.66-0.98,28.6,6.35,37.33c7.8,9.27,17.75,10.75,22.91,10
		c4.55-0.66,8.46-1.98,9.58-6.96c1.42-6.38,0.98-17.28-7.35-25.61C248.26,319.7,238.17,315.5,223.76,311.93z"/>
	<path class="st1" d="M234.92,455.43c13.1,4.54,28.08,5.5,37.86-0.35c10.4-6.23,13.43-15.82,13.51-21.03
		c0.07-4.6-0.62-8.67-5.35-10.55c-6.07-2.42-16.9-3.71-26.46,3.19C246.48,432.48,240.73,441.77,234.92,455.43z"/>
	<path class="st1" d="M261.07,285.53c-4.33,15.88-4.65,33.31,2.26,43.54c7.34,10.9,17.23,13.42,22.96,12.61
		c5.05-0.72,10.26-2.92,12.09-8.69c2.36-7.42,3.24-20.12-4.81-29.92C286.81,294.85,276.33,289.85,261.07,285.53z"/>
	<path class="st1" d="M170.06,392.22c11.16,13.58,26.14,24.61,39.32,24.92c14.02,0.33,22.33-6.72,25.15-12.21
		c2.49-4.84,3.8-10.73-0.1-15.9c-5-6.63-15.52-15.24-29.03-14.28C194.07,375.55,183.25,381.59,170.06,392.22z"/>
	<path class="st1" d="M107.02,238.37c3.61,17.21,11.78,33.91,23.33,40.28c12.28,6.78,22.9,4.37,27.95,0.81
		c4.45-3.14,8.34-7.76,7.26-14.14c-1.37-8.19-6.71-20.69-19.13-26.09C136.02,234.7,123.63,235.04,107.02,238.37z"/>
	<path class="st1" d="M370.59,282.05c3.03,17.17,1.23,35.94-7.98,46.9c-9.8,11.66-22.3,13.51-28.79,12.57
		c-5.72-0.83-10.63-2.5-12.03-8.74c-1.79-8.02-1.24-21.71,9.24-32.18C339.82,291.8,352.5,286.53,370.59,282.05z"/>
	<path class="st1" d="M343.16,235.53c2.71,15.38,1.1,32.2-7.15,42.01c-8.78,10.44-19.98,12.1-25.79,11.26
		c-5.12-0.74-9.53-2.24-10.78-7.83c-1.61-7.18-1.11-19.45,8.27-28.83C315.59,244.27,326.94,239.55,343.16,235.53z"/>
	<path class="st1" d="M170.55,328.99c2.4,15.46,9.36,30.89,20.36,37.54c11.7,7.07,22.85,5.02,28.09,2.34
		c4.62-2.36,8.31-5.2,7.69-10.91c-0.8-7.33-5.23-18.8-17.17-24.67C199.53,328.37,187.23,327.56,170.55,328.99z"/>
	<path class="st1" d="M167.43,230.69c-2.43,13.8-0.99,28.9,6.42,37.71c7.88,9.37,17.93,10.86,23.14,10.1c4.6-0.67,8.55-2,9.68-7.03
		c1.44-6.44,1-17.45-7.42-25.88C192.18,238.54,181.99,234.3,167.43,230.69z"/>
	<path class="st1" d="M107.83,314.55c4.34,15.03,13.21,29.45,24.96,34.64c12.5,5.52,23.31,2.08,28.17-1.24
		c4.29-2.93,7.58-6.22,6.24-11.8c-1.72-7.17-7.58-17.99-20.16-22.29C136.49,310.25,124.19,311.01,107.83,314.55z"/>
	<path class="st1" d="M197.73,51.11c3.7,12.78,11.24,25.06,21.23,29.48c10.64,4.7,19.83,1.77,23.96-1.06
		c3.65-2.49,6.45-5.28,5.31-10.04c-1.47-6.1-6.45-15.3-17.15-18.96C222.11,47.45,211.65,48.1,197.73,51.11z"/>
	<path class="st1" d="M84.31,276.49c3.69,12.79,11.24,25.06,21.23,29.48c10.64,4.7,19.83,1.76,23.96-1.06
		c3.65-2.49,6.45-5.28,5.31-10.04c-1.47-6.1-6.45-15.3-17.15-18.96C108.7,272.84,98.23,273.48,84.31,276.49z"/>
	<path class="st1" d="M150.29,291.3c6,14.45,16.42,27.79,28.68,31.64c13.04,4.09,23.39-0.54,27.85-4.39
		c3.93-3.39,6.84-7.02,4.89-12.42c-2.51-6.94-9.54-17.03-22.53-19.9C178.29,283.83,166.15,285.96,150.29,291.3z"/>
	<path class="st1" d="M74,335.15c3.39,11.73,10.31,22.99,19.49,27.05c9.76,4.31,18.2,1.62,21.98-0.97c3.34-2.29,5.92-4.85,4.87-9.21
		c-1.34-5.6-5.92-14.04-15.74-17.4C96.37,331.8,86.77,332.39,74,335.15z"/>
	<path class="st1" d="M99.45,184.41c-2.87,13-2.11,27.38,4.56,36.05c7.09,9.21,16.57,11.03,21.55,10.53
		c4.39-0.45,8.19-1.55,9.46-6.28c1.63-6.06,1.65-16.52-6-24.85C122.61,192.86,113.12,188.43,99.45,184.41z"/>
	<path class="st1" d="M250.1,183.79c-2.73,13.03-1.83,27.4,4.93,36c7.19,9.13,16.69,10.86,21.66,10.3c4.39-0.49,8.18-1.64,9.4-6.37
		c1.56-6.07,1.48-16.54-6.25-24.79C273.34,192,263.8,187.66,250.1,183.79z"/>
	<path class="st1" d="M192.58,203.18c-2.73,13.03-1.83,27.4,4.93,36c7.19,9.13,16.69,10.86,21.66,10.3c4.39-0.49,8.18-1.64,9.4-6.38
		c1.57-6.07,1.48-16.54-6.25-24.79C215.83,211.39,206.28,207.05,192.58,203.18z"/>
	<path class="st1" d="M171.47,113.15c-2.87,13-2.11,27.38,4.56,36.04c7.09,9.21,16.57,11.04,21.55,10.53
		c4.39-0.45,8.2-1.56,9.47-6.28c1.63-6.06,1.65-16.52-6-24.85C194.64,121.6,185.14,117.16,171.47,113.15z"/>
	<path class="st1" d="M70.01,221.72c-2.87,13-2.11,27.38,4.56,36.04c7.09,9.21,16.57,11.03,21.55,10.53
		c4.39-0.45,8.2-1.56,9.46-6.28c1.63-6.06,1.65-16.52-5.99-24.85C93.17,230.17,83.68,225.73,70.01,221.72z"/>
	<path class="st1" d="M61.75,288.6c-1.21,12.08,1.01,25.04,7.98,32.18c7.41,7.59,16.19,8.23,20.66,7.23
		c3.94-0.87,7.26-2.28,7.91-6.7c0.83-5.66-0.27-15.15-8.09-21.88C83.64,293.78,74.56,290.78,61.75,288.6z"/>
	<path class="st1" d="M215.32,124.7c-2.73,13.03-1.83,27.4,4.93,35.99c7.19,9.14,16.68,10.86,21.66,10.3
		c4.39-0.49,8.18-1.64,9.4-6.38c1.57-6.07,1.48-16.54-6.25-24.79C238.57,132.9,229.03,128.57,215.32,124.7z"/>
	<path class="st1" d="M261,135.18c-4.65,15.1-5.49,31.8,0.81,41.83c6.71,10.68,16.11,13.41,21.63,12.81
		c4.87-0.53,9.93-2.48,11.87-7.96c2.49-7.04,3.73-19.19-3.69-28.84C285.41,144.92,275.51,139.79,261,135.18z"/>
	<path class="st1" d="M129.46,144.13c1.67,14.92,7.71,30,17.98,36.82c10.92,7.25,21.7,5.75,26.84,3.39
		c4.53-2.07,8.18-4.64,7.82-10.14c-0.46-7.06-4.24-18.24-15.44-24.36C157.26,144.72,145.5,143.44,129.46,144.13z"/>
	<path class="st1" d="M133.34,186.78c1.67,14.92,7.71,30,17.98,36.82c10.93,7.25,21.7,5.75,26.84,3.39
		c4.53-2.07,8.18-4.64,7.82-10.14c-0.46-7.06-4.24-18.24-15.44-24.36C161.13,187.38,149.38,186.1,133.34,186.78z"/>
	<path class="st1" d="M212.23,87.06c1.82,14.9,8.02,29.91,18.36,36.63c11,7.14,21.76,5.53,26.87,3.12
		c4.51-2.12,8.14-4.72,7.72-10.22c-0.54-7.06-4.43-18.19-15.7-24.19C240.03,87.37,228.26,86.21,212.23,87.06z"/>
	<path class="st1" d="M188.32,166.55c1.82,14.9,8.02,29.91,18.36,36.63c11,7.14,21.76,5.53,26.87,3.11
		c4.51-2.12,8.14-4.72,7.72-10.22c-0.53-7.06-4.43-18.19-15.7-24.19C216.12,166.86,204.35,165.7,188.32,166.55z"/>
	<path class="st1" d="M173.8,70.44c-2.9,13.13-2.14,27.66,4.6,36.41c7.17,9.31,16.74,11.15,21.77,10.64
		c4.44-0.45,8.28-1.57,9.56-6.34c1.65-6.12,1.67-16.69-6.05-25.11C197.2,78.98,187.61,74.5,173.8,70.44z"/>
	<path class="st1" d="M127.27,97.59c-2.9,13.13-2.14,27.66,4.6,36.41c7.17,9.31,16.74,11.15,21.77,10.64
		c4.44-0.45,8.28-1.57,9.56-6.34c1.65-6.12,1.67-16.69-6.06-25.11C150.67,106.12,141.08,101.64,127.27,97.59z"/>
	<path class="st1" d="M94.32,138.3c-2.9,13.13-2.14,27.66,4.6,36.42c7.17,9.31,16.74,11.15,21.77,10.64
		c4.44-0.45,8.28-1.57,9.56-6.34c1.65-6.12,1.67-16.69-6.06-25.12C117.71,146.83,108.12,142.35,94.32,138.3z"/>
	<path class="st1" d="M317.36,26.84c-11.29,7.06-21.02,17.67-22.53,28.5c-1.61,11.51,3.73,19.55,7.58,22.75
		c3.39,2.82,6.85,4.76,11.11,2.36c5.46-3.08,12.95-10.39,13.54-21.69C327.55,49.29,324.07,39.41,317.36,26.84z"/>
	<path class="st1" d="M486.93,111.01c-13.21-1.64-27.46,0.45-35.47,7.9c-8.5,7.92-9.44,17.53-8.46,22.44
		c0.85,4.33,2.31,8.01,7.13,8.84c6.18,1.06,16.61,0.1,24.19-8.29C480.68,134.86,484.21,124.99,486.93,111.01z"/>
	<path class="st1" d="M437.19,61.95c-13.21-1.65-27.46,0.45-35.46,7.9c-8.51,7.92-9.44,17.53-8.47,22.44
		c0.85,4.33,2.31,8.01,7.13,8.84c6.18,1.06,16.61,0.1,24.18-8.29C430.94,85.8,434.47,75.92,437.19,61.95z"/>
	<path class="st1" d="M269.81,28.2c-10.47,8.44-18.95,20.26-19.15,31.31c-0.22,11.74,6.11,19.17,10.36,21.91
		c3.75,2.42,7.45,3.94,11.43,1.02c5.11-3.75,11.73-11.99,10.96-23.39C282.75,49.48,278.05,39.98,269.81,28.2z"/>
	<path class="st1" d="M186.76,455.61c13.28,4.01,28.29,4.36,37.82-1.89c10.13-6.65,12.77-16.35,12.64-21.57
		c-0.11-4.6-0.97-8.64-5.77-10.33c-6.17-2.17-17.04-3.02-26.3,4.27C197.37,432.21,192.01,441.73,186.76,455.61z"/>
	<path class="st1" d="M112.08,373.8c9.8,9.82,22.86,17.22,34.21,16.23c12.07-1.06,18.99-8.36,21.34-13.01
		c2.08-4.11,3.23-8.07-0.2-11.84c-4.4-4.83-13.58-10.73-25.19-8.69C132.5,358.21,123.27,364.06,112.08,373.8z"/>
	<path class="st1" d="M119.24,412.01c9.8,9.82,22.86,17.23,34.2,16.23c12.07-1.05,18.99-8.35,21.34-13.01
		c2.08-4.11,3.23-8.07-0.2-11.84c-4.4-4.83-13.58-10.73-25.18-8.68C139.66,396.42,130.44,402.27,119.24,412.01z"/>
	<path class="st1" d="M511.96,259.85c-3.7,12.79-11.24,25.06-21.24,29.48c-10.63,4.69-19.83,1.76-23.96-1.06
		c-3.64-2.49-6.45-5.28-5.31-10.04c1.47-6.1,6.45-15.3,17.15-18.96C487.58,256.2,498.04,256.84,511.96,259.85z"/>
	<path class="st1" d="M518.43,190.7c-3.7,12.79-11.24,25.06-21.24,29.48c-10.63,4.7-19.83,1.76-23.96-1.06
		c-3.64-2.49-6.45-5.29-5.31-10.04c1.47-6.1,6.45-15.3,17.15-18.96C494.04,187.05,504.51,187.69,518.43,190.7z"/>
	<path class="st1" d="M509.15,372.08c-8.84,9.95-20.93,17.79-31.85,17.47c-11.62-0.33-18.66-6.94-21.17-11.27
		c-2.22-3.82-3.55-7.55-0.48-11.35c3.95-4.88,12.41-11.04,23.64-9.74C488.71,358.29,497.88,363.37,509.15,372.08z"/>
	<path class="st1" d="M541.99,316.75c-12.25,5.2-26.53,7.09-36.27,2.12c-10.36-5.29-13.88-14.27-14.29-19.26
		c-0.37-4.4,0.03-8.34,4.44-10.45c5.65-2.71,15.95-4.65,25.53,1.34C529.45,295.53,535.55,304.06,541.99,316.75z"/>
	<path class="st1" d="M449.7,101.86c-2.97,15.52-10.06,30.66-20.34,36.56c-10.93,6.29-20.52,4.28-25.11,1.16
		c-4.05-2.75-7.61-6.85-6.75-12.6c1.1-7.38,5.71-18.7,16.78-23.74C423.58,99.01,434.72,99.13,449.7,101.86z"/>
	<path class="st1" d="M421.91,314.47c-2.97,15.52-10.06,30.66-20.34,36.56c-10.93,6.29-20.52,4.28-25.11,1.17
		c-4.05-2.76-7.61-6.85-6.75-12.6c1.1-7.38,5.71-18.7,16.79-23.74C395.79,311.63,406.93,311.75,421.91,314.47z"/>
	<path class="st1" d="M496.46,322.74c-14.04,7.25-30.32,11.04-41.31,6.61c-11.7-4.71-16.05-13.48-16.43-19.01
		c-0.34-4.88,0.67-10.21,5.73-13.09c6.49-3.7,18.22-7.07,29.04-1.48C482.55,300.45,489.34,309.28,496.46,322.74z"/>
	<path class="st1" d="M538.02,247.66c-11.2,5.79-24.2,8.81-32.97,5.28c-9.34-3.75-12.81-10.75-13.11-15.17
		c-0.27-3.9,0.54-8.15,4.57-10.45c5.18-2.95,14.54-5.64,23.17-1.18C526.92,229.87,532.34,236.92,538.02,247.66z"/>
	<path class="st1" d="M488,239.26c-8.6,12.31-21.12,22.66-33.4,23.74c-13.06,1.15-21.81-5.33-25.19-9.85
		c-2.99-3.99-4.97-7.99-2.02-12.65c3.79-5.98,12.45-13.99,25.21-14C463.3,226.48,474.24,230.98,488,239.26z"/>
	<path class="st1" d="M500.61,167.21c-8.34,12.01-20.54,22.07-32.59,23.03c-12.81,1.02-21.45-5.41-24.8-9.87
		c-2.96-3.94-4.94-7.88-2.09-12.43c3.66-5.84,12.11-13.63,24.63-13.54C476.26,154.47,487.03,158.97,500.61,167.21z"/>
	<path class="st1" d="M472.34,337.68c-6.49,13.53-17.17,25.78-29.12,28.83c-12.71,3.24-22.39-1.73-26.46-5.65
		c-3.59-3.45-6.2-7.08-4.04-12.15c2.76-6.52,10.02-15.82,22.61-17.9C445.9,329.07,457.42,331.74,472.34,337.68z"/>
	<path class="st1" d="M478.87,420.01c-9.41,9.42-21.93,16.53-32.82,15.58c-11.58-1.01-18.22-8.02-20.48-12.49
		c-1.99-3.94-3.1-7.74,0.19-11.36c4.22-4.63,13.03-10.29,24.17-8.33C459.27,405.04,468.12,410.66,478.87,420.01z"/>
	<path class="st1" d="M321.69,443.99c-12.84-3.5-25.22-10.86-29.79-20.79c-4.86-10.56-2.06-19.8,0.7-23.98
		c2.44-3.68,5.19-6.53,9.96-5.46c6.12,1.37,15.39,6.22,19.21,16.86C324.98,419.55,324.49,430.02,321.69,443.99z"/>
	<path class="st1" d="M531.29,338.29c-7.83,10.77-19.09,19.74-30,20.5c-11.6,0.8-19.25-5.08-22.17-9.15
		c-2.58-3.58-4.27-7.17-1.58-11.25c3.45-5.23,11.27-12.19,22.57-11.99C509.6,326.56,519.22,330.73,531.29,338.29z"/>
	<path class="st1" d="M366.94,449.65c-14.34-1.76-28.78-7.73-35.24-17.68c-6.87-10.59-5.31-20.95-2.99-25.86
		c2.04-4.33,4.55-7.83,9.84-7.42c6.79,0.52,17.51,4.28,23.27,15.11C366.66,422.9,367.77,434.22,366.94,449.65z"/>
	<path class="st1" d="M399.5,364.66c-8.86,15.08-22.44,28.25-36.61,30.64c-15.07,2.53-25.83-4.19-30.16-9.13
		c-3.83-4.36-6.5-8.82-3.5-14.51c3.84-7.29,13.18-17.39,28-18.58C369.64,352.09,382.76,356.31,399.5,364.66z"/>
	<path class="st1" d="M452.18,269.51c-5.6,16.58-16.2,32.24-29.59,37.47c-14.23,5.55-26.14,1.17-31.39-2.78
		c-4.65-3.48-8.17-7.31-6.4-13.49c2.27-7.92,9.35-19.71,23.62-23.91C420.38,263.3,434.08,264.75,452.18,269.51z"/>
	<path class="st1" d="M406.76,235.32c-2.44,14.92-9.28,29.77-19.96,36.11c-11.36,6.74-22.12,4.67-27.15,2.05
		c-4.45-2.32-8-5.08-7.35-10.6c0.83-7.08,5.2-18.12,16.77-23.7C378.77,234.5,390.66,233.82,406.76,235.32z"/>
	<path class="st1" d="M459.79,387.37c-10.52,10.53-24.52,18.48-36.7,17.41c-12.95-1.13-20.37-8.96-22.89-13.96
		c-2.23-4.41-3.47-8.66,0.21-12.7c4.72-5.18,14.57-11.51,27.02-9.32C437.88,370.64,447.78,376.92,459.79,387.37z"/>
	<path class="st1" d="M419.89,448.09c-17.65-0.46-35.65-5.54-44.02-15.8c-8.92-10.92-8.45-21.85-5.84-27.48
		c2.3-4.97,6.17-9.64,12.67-9.73c8.35-0.12,21.66,2.9,29.24,14.21C418.29,418.77,420.18,431.08,419.89,448.09z"/>
	<path class="st1" d="M285.68,74.21c12.28,8.64,22.58,21.2,23.61,33.48c1.1,13.07-5.41,21.79-9.94,25.16
		c-4,2.97-8.01,4.94-12.66,1.97c-5.96-3.81-13.95-12.5-13.91-25.26C272.82,98.86,277.36,87.94,285.68,74.21z"/>
	<path class="st1" d="M347.6,128.28c-1.22,13.25-6.31,26.73-15.29,32.95c-9.56,6.62-19.14,5.47-23.73,3.47
		c-4.05-1.76-7.34-3.97-7.11-8.86c0.29-6.26,3.45-16.25,13.27-21.85C322.96,129.29,333.36,127.95,347.6,128.28z"/>
	<path class="st1" d="M395.19,205.79c-6.08,12.46-16.03,23.71-27.09,26.45c-11.76,2.92-20.68-1.74-24.41-5.39
		c-3.29-3.21-5.67-6.59-3.65-11.26c2.6-6,9.36-14.55,21-16.39C370.81,197.67,381.44,200.2,395.19,205.79z"/>
	<path class="st1" d="M321.66,172.8c9.2,12.65,15.15,28.5,12.04,40.97c-3.31,13.26-12.66,19.68-18.27,21.47
		c-4.94,1.58-9.56,2.18-13.15-2.31c-4.6-5.76-9.55-17.02-5.23-29.6C300.68,192.79,308.83,183.54,321.66,172.8z"/>
	<path class="st1" d="M382.96,87.25c5.83,11.97,8.47,26.12,4.02,36.11c-4.74,10.62-13.53,14.61-18.49,15.28
		c-4.37,0.6-8.33,0.41-10.67-3.88c-3-5.51-5.48-15.68,0.01-25.57C362.43,100.89,370.62,94.35,382.96,87.25z"/>
	<path class="st1" d="M372.49,143.05c5.84,11.96,8.47,26.12,4.02,36.11c-4.74,10.62-13.52,14.61-18.48,15.28
		c-4.38,0.6-8.33,0.41-10.67-3.89c-3-5.5-5.48-15.68,0-25.56C351.95,156.7,360.14,150.16,372.49,143.05z"/>
	<path class="st1" d="M317.48,337.78c5.84,11.96,8.47,26.12,4.02,36.11c-4.74,10.62-13.52,14.61-18.48,15.29
		c-4.38,0.6-8.33,0.41-10.67-3.89c-3-5.5-5.48-15.67,0-25.56C296.95,351.42,305.14,344.89,317.48,337.78z"/>
	<path class="st1" d="M341.22,65.68c8.2,13.5,13.1,29.49,9.44,40.76c-3.89,11.99-12.35,16.94-17.84,17.7
		c-4.85,0.67-10.23,0.02-13.46-4.82c-4.13-6.22-8.31-17.7-3.47-28.87C319.94,81.08,328.29,73.7,341.22,65.68z"/>
	<path class="st1" d="M457.07,197.23c-5.54,14.79-15.08,28.52-26.21,32.61c-11.83,4.36-20.95,0.77-24.94-3.08
		c-3.53-3.4-6.35-8.03-4.53-13.55c2.33-7.1,8.77-17.47,20.54-20.58C431.8,190.02,442.77,192.01,457.07,197.23z"/>
	<path class="st1" d="M429.96,144.07c1.88,14.9-0.46,30.97-8.85,40.01c-8.92,9.61-19.75,10.68-25.3,9.59
		c-4.89-0.95-9.04-2.59-9.98-8.03c-1.2-6.97-0.15-18.73,9.31-27.3C403.07,151.17,414.2,147.17,429.96,144.07z"/>
	<path class="st1" d="M383.56,37.07c5.89,12.09,8.56,26.39,4.06,36.48c-4.79,10.73-13.66,14.77-18.67,15.44
		c-4.42,0.6-8.42,0.42-10.78-3.92c-3.04-5.57-5.54-15.84,0-25.84C362.82,50.85,371.1,44.24,383.56,37.07z"/>
</g>
<g id="Dummy_Text">
</g>
</svg>
