<?xml version="1.0" encoding="utf-8"?>
<!-- Generator: Adobe Illustrator 25.2.3, SVG Export Plug-In . SVG Version: 6.00 Build 0)  -->
<svg version="1.1" id="Layer_1" xmlns="http://www.w3.org/2000/svg" xmlns:xlink="http://www.w3.org/1999/xlink" x="0px" y="0px"
	 viewBox="0 0 595.3 568.9" style="enable-background:new 0 0 595.3 568.9;" xml:space="preserve">
<style type="text/css">
	.st0{stroke:#000000;stroke-miterlimit:10;}
</style>
<g>
	<path class="st0" d="M322.4,299c0,17.2-11.1,31-25.2,31c-8.9,0-15.3-6.4-16.6-7.8c-0.8-0.8-8.8-9.9-8.4-23.2
		c0.3-14.6,10.2-31,25.2-31C311.1,268,322.4,281.9,322.4,299z"/>
	<path class="st0" d="M282.4,327.9c-5.6-1.1-16.1-2.2-26.6,4c-8.3,4.9-13.2,11.8-18,21.2c-33.1,65.6-31.5,73.6-28.8,77.9
		c0.3,0.5,3.3,5.3,7.2,5.1c8-0.5,10-21.8,22.8-47.5c4.3-8.8,16.1-32.5,23.4-30.4c8.3,2.4,10.3,38.1,6.5,69.4
		c-8.8,69.9-48.9,128.5-49,128.7c-1,2.9-2.2,8.3,0,11c3.3,4.1,12.4-0.3,16.2-2.1c21.7-10.5,51.3-83,61.6-109.2"/>
	<path class="st0" d="M313.6,327.4c5.4-1,15.8-1.6,26,4.5c8.4,4.9,13.4,12.1,18,21.2c33.1,65.6,31.4,73.6,28.8,77.9
		c-0.3,0.5-3.3,5.3-7.2,5.1c-8-0.5-10-21.8-22.8-47.5c-4.3-8.8-16.1-32.5-23.4-30.4c-8.3,2.4-10.3,38.1-6.5,69.4
		c8.8,69.9,48.9,128.5,49,128.7c1,2.9,2.2,8.3,0,11c-3.3,4.1-12.4-0.3-16.2-2.1c-21.7-10.5-51.3-83-61.6-109.2"/>
	<rect x="279.2" y="327.4" class="st0" width="37.1" height="129"/>
</g>
</svg>
