<?xml version="1.0" encoding="utf-8"?>
<!-- Generator: Adobe Illustrator 24.3.0, SVG Export Plug-In . SVG Version: 6.00 Build 0)  -->
<svg version="1.1" id="Layer_1" xmlns="http://www.w3.org/2000/svg" xmlns:xlink="http://www.w3.org/1999/xlink" x="0px" y="0px"
	 viewBox="0 0 595.3 568.9" style="enable-background:new 0 0 595.3 568.9;" xml:space="preserve">
<style type="text/css">
	.st0{fill:#FFFFFF;stroke:#565757;stroke-miterlimit:10;}
	.st1{fill:#565757;stroke:#565757;stroke-miterlimit:10;}
	.st2{fill:#FFFF00;stroke:#FFFF00;stroke-miterlimit:10;}
	.st3{stroke:#000000;stroke-miterlimit:10;}
	.st4{fill:#A52A2A;stroke:#A52A2A;stroke-miterlimit:10;}
	.st5{fill:#FFFFFF;stroke:#FFFFFF;stroke-miterlimit:10;}
</style>
<path class="st0" d="M403.6,217.9c-3.6-0.7-13.4,0.5-20.4,4.4c-5.5,3.1-8.7,7.4-11.9,13.3c-21.8,41.2-20.7,46.2-19,48.9
	c0.2,0.3,2.2,3.3,4.7,3.2c5.3-0.3,6.6-13.7,14.9-29.8c2.8-5.5,10.6-20.4,15.4-19.1c5.4,1.5,6.8,23.9,4.3,43.6
	c-5.8,43.9-32.2,80.7-32.2,80.8c-0.6,1.8-1.4,5.2,0,6.9c2.1,2.6,8.2-0.2,10.7-1.3c14.3-6.6,32.9-49,39.6-65.5"/>
<path class="st0" d="M417.4,218.9c3.7-0.6,12.3-0.6,19.2,3.3c5.7,3.1,9,7.6,12.1,13.3c22.3,41.2,21.1,46.2,19.3,48.9
	c-0.2,0.3-2.3,3.3-4.9,3.2c-5.4-0.3-6.7-13.7-15.3-29.8c-2.9-5.5-10.8-20.4-15.7-19.1c-5.6,1.5-7,23.9-4.4,43.6
	c5.9,43.9,32.9,80.7,33,80.8c0.6,1.8,1.5,5.2,0,6.9c-2.2,2.6-8.4-0.2-10.9-1.3c-14.6-6.6-33.1-48.9-40.1-65.3"/>
<g id="_x31_6:12_Rectangle">
</g>
<g>
	<path class="st1" d="M87.6,202.1c0,10.8-7,19.5-15.8,19.5c-5.6,0-9.6-4-10.4-4.9c-0.5-0.5-5.5-6.2-5.3-14.6
		c0.2-9.2,6.4-19.5,15.8-19.5C80.6,182.6,87.6,191.3,87.6,202.1z"/>
	<path class="st1" d="M62.6,220.2c-3.5-0.7-10.1-1.4-16.7,2.5c-5.2,3.1-8.3,7.4-11.3,13.3c-20.8,41.2-19.8,46.2-18.1,48.9
		c0.2,0.3,2.1,3.3,4.5,3.2c5-0.3,6.3-13.7,14.3-29.8c2.7-5.5,10.1-20.4,14.7-19.1c5.2,1.5,6.5,23.9,4.1,43.6
		c-5.5,43.9-30.7,80.7-30.8,80.8c-0.6,1.8-1.4,5.2,0,6.9c2.1,2.6,7.8-0.2,10.2-1.3c13.6-6.6,32.2-52.1,38.7-68.6"/>
	<path class="st1" d="M82.2,219.9c3.4-0.6,9.9-1,16.3,2.8c5.3,3.1,8.4,7.6,11.3,13.3c20.8,41.2,19.7,46.2,18.1,48.9
		c-0.2,0.3-2.1,3.3-4.5,3.2c-5-0.3-6.3-13.7-14.3-29.8c-2.7-5.5-10.1-20.4-14.7-19.1c-5.2,1.5-6.5,23.9-4.1,43.6
		c5.5,43.9,30.7,80.7,30.8,80.8c0.6,1.8,1.4,5.2,0,6.9c-2.1,2.6-7.8-0.2-10.2-1.3c-13.6-6.6-32.2-52.1-38.7-68.6"/>
	<rect x="60.5" y="219.9" class="st1" width="23.3" height="81"/>
</g>
<g>
	<path class="st2" d="M539.9,202.1c0,10.8-7,19.5-15.8,19.5c-5.6,0-9.6-4-10.4-4.9c-0.5-0.5-5.5-6.2-5.3-14.6
		c0.2-9.2,6.4-19.5,15.8-19.5C532.8,182.6,539.9,191.3,539.9,202.1z"/>
	<path class="st2" d="M514.8,220.2c-3.5-0.7-10.1-1.4-16.7,2.5c-5.2,3.1-8.3,7.4-11.3,13.3c-20.8,41.2-19.8,46.2-18.1,48.9
		c0.2,0.3,2.1,3.3,4.5,3.2c5-0.3,6.3-13.7,14.3-29.8c2.7-5.5,10.1-20.4,14.7-19.1c5.2,1.5,6.5,23.9,4.1,43.6
		c-5.5,43.9-30.7,80.7-30.8,80.8c-0.6,1.8-1.4,5.2,0,6.9c2.1,2.6,7.8-0.2,10.2-1.3c13.6-6.6,32.2-52.1,38.7-68.6"/>
	<path class="st2" d="M534.4,219.9c3.4-0.6,9.9-1,16.3,2.8c5.3,3.1,8.4,7.6,11.3,13.3c20.8,41.2,19.7,46.2,18.1,48.9
		c-0.2,0.3-2.1,3.3-4.5,3.2c-5-0.3-6.3-13.7-14.3-29.8c-2.7-5.5-10.1-20.4-14.7-19.1c-5.2,1.5-6.5,23.9-4.1,43.6
		c5.5,43.9,30.7,80.7,30.8,80.8c0.6,1.8,1.4,5.2,0,6.9c-2.1,2.6-7.8-0.2-10.2-1.3c-13.6-6.6-32.2-52.1-38.7-68.6"/>
	<rect x="512.8" y="219.9" class="st2" width="23.3" height="81"/>
</g>
<g>
	<path class="st3" d="M200.7,202.1c0,10.8-7,19.5-15.8,19.5c-5.6,0-9.6-4-10.4-4.9c-0.5-0.5-5.5-6.2-5.3-14.6
		c0.2-9.2,6.4-19.5,15.8-19.5C193.6,182.6,200.7,191.3,200.7,202.1z"/>
	<path class="st3" d="M175.6,220.2c-3.5-0.7-10.1-1.4-16.7,2.5c-5.2,3.1-8.3,7.4-11.3,13.3c-20.8,41.2-19.8,46.2-18.1,48.9
		c0.2,0.3,2.1,3.3,4.5,3.2c5-0.3,6.3-13.7,14.3-29.8c2.7-5.5,10.1-20.4,14.7-19.1c5.2,1.5,6.5,23.9,4.1,43.6
		c-5.5,43.9-30.7,80.7-30.8,80.8c-0.6,1.8-1.4,5.2,0,6.9c2.1,2.6,7.8-0.2,10.2-1.3c13.6-6.6,32.2-52.1,38.7-68.6"/>
	<path class="st3" d="M195.2,219.9c3.4-0.6,9.9-1,16.3,2.8c5.3,3.1,8.4,7.6,11.3,13.3c20.8,41.2,19.7,46.2,18.1,48.9
		c-0.2,0.3-2.1,3.3-4.5,3.2c-5-0.3-6.3-13.7-14.3-29.8c-2.7-5.5-10.1-20.4-14.7-19.1c-5.2,1.5-6.5,23.9-4.1,43.6
		c5.5,43.9,30.7,80.7,30.8,80.8c0.6,1.8,1.4,5.2,0,6.9c-2.1,2.6-7.8-0.2-10.2-1.3c-13.6-6.6-32.2-52.1-38.7-68.6"/>
	<rect x="173.6" y="219.9" class="st3" width="23.3" height="81"/>
</g>
<g>
	<path class="st4" d="M313.7,202.1c0,10.8-7,19.5-15.8,19.5c-5.6,0-9.6-4-10.4-4.9c-0.5-0.5-5.5-6.2-5.3-14.6
		c0.2-9.2,6.4-19.5,15.8-19.5C306.7,182.6,313.7,191.3,313.7,202.1z"/>
	<path class="st4" d="M288.7,220.2c-3.5-0.7-10.1-1.4-16.7,2.5c-5.2,3.1-8.3,7.4-11.3,13.3c-20.8,41.2-19.8,46.2-18.1,48.9
		c0.2,0.3,2.1,3.3,4.5,3.2c5-0.3,6.3-13.7,14.3-29.8c2.7-5.5,10.1-20.4,14.7-19.1c5.2,1.5,6.5,23.9,4.1,43.6
		c-5.5,43.9-30.7,80.7-30.8,80.8c-0.6,1.8-1.4,5.2,0,6.9c2.1,2.6,7.8-0.2,10.2-1.3c13.6-6.6,32.2-52.1,38.7-68.6"/>
	<path class="st4" d="M308.3,219.9c3.4-0.6,9.9-1,16.3,2.8c5.3,3.1,8.4,7.6,11.3,13.3c20.8,41.2,19.7,46.2,18.1,48.9
		c-0.2,0.3-2.1,3.3-4.5,3.2c-5-0.3-6.3-13.7-14.3-29.8c-2.7-5.5-10.1-20.4-14.7-19.1c-5.2,1.5-6.5,23.9-4.1,43.6
		c5.5,43.9,30.7,80.7,30.8,80.8c0.6,1.8,1.4,5.2,0,6.9c-2.1,2.6-7.8-0.2-10.2-1.3c-13.6-6.6-32.2-52.1-38.7-68.6"/>
	<rect x="286.6" y="219.9" class="st4" width="23.3" height="81"/>
</g>
<rect x="402" y="218.6" class="st5" width="16.6" height="83.8"/>
<path class="st0" d="M426.8,202.1c0,10.8-7,19.5-15.8,19.5c-5.6,0-9.6-4-10.4-4.9c-0.5-0.5-5.5-6.2-5.3-14.6
	c0.2-9.2,6.4-19.5,15.8-19.5C419.8,182.6,426.8,191.3,426.8,202.1z"/>
</svg>
