<?xml version="1.0" encoding="utf-8"?>
<!-- Generator: Adobe Illustrator 25.2.3, SVG Export Plug-In . SVG Version: 6.00 Build 0)  -->
<svg version="1.1" id="Layer_1" xmlns="http://www.w3.org/2000/svg" xmlns:xlink="http://www.w3.org/1999/xlink" x="0px" y="0px"
	 viewBox="0 0 595.3 568.9" style="enable-background:new 0 0 595.3 568.9;" xml:space="preserve">
<style type="text/css">
	.st0{fill:#565757;stroke:#000000;stroke-miterlimit:10;}
	.st1{fill:#E8C81D;}
	.st2{fill:#565757;}
	.st3{fill:#FFFFFF;stroke:#565757;stroke-miterlimit:10;}
	.st4{fill:#FFFFFF;stroke:#FFFFFF;stroke-miterlimit:10;}
	.st5{stroke:#000000;stroke-miterlimit:10;}
	.st6{fill:#A52A2A;stroke:#A52A2A;stroke-miterlimit:10;}
</style>
<g id="_x31_6:12_Rectangle">
</g>
<rect x="83.1" y="506.1" class="st0" width="429.2" height="62.8"/>
<g>
	<path class="st1" d="M411.8,236.2c0,17.2-11.1,31-25.2,31c-8.9,0-15.3-6.4-16.6-7.8c-0.8-0.8-8.8-9.9-8.4-23.2
		c0.3-14.6,10.2-31,25.2-31C400.5,205.2,411.8,219,411.8,236.2z"/>
	<path class="st1" d="M371.9,265.1c-5.6-1.1-16.1-2.2-26.6,4c-8.3,4.9-13.2,11.8-18,21.2c-33.1,65.6-31.5,73.6-28.8,77.9
		c0.3,0.5,3.3,5.3,7.2,5.1c8-0.5,10-21.8,22.8-47.5c4.3-8.8,16.1-32.5,23.4-30.4c8.3,2.4,10.3,38.1,6.5,69.4
		c-8.8,69.9-48.9,128.5-49,128.7c-1,2.9-2.2,8.3,0,11c3.3,4.1,12.4-0.3,16.2-2.1c21.7-10.5,51.3-83,61.6-109.2"/>
	<path class="st1" d="M403.1,264.6c5.4-1,15.8-1.6,26,4.5c8.4,4.9,13.4,12.1,18,21.2c33.1,65.6,31.4,73.6,28.8,77.9
		c-0.3,0.5-3.3,5.3-7.2,5.1c-8-0.5-10-21.8-22.8-47.5c-4.3-8.8-16.1-32.5-23.4-30.4c-8.3,2.4-10.3,38.1-6.5,69.4
		c8.8,69.9,48.9,128.5,49,128.7c1,2.9,2.2,8.3,0,11c-3.3,4.1-12.4-0.3-16.2-2.1c-21.7-10.5-51.3-83-61.6-109.2"/>
	<rect x="368.7" y="264.6" class="st1" width="37.1" height="129"/>
	<path class="st2" d="M232.9,236.2c0,17.2-11.1,31-25.2,31c-8.9,0-15.3-6.4-16.6-7.8c-0.8-0.8-8.8-9.9-8.4-23.2
		c0.3-14.6,10.2-31,25.2-31C221.6,205.2,232.9,219,232.9,236.2z"/>
	<path class="st2" d="M192.9,265.1c-5.6-1.1-16.1-2.2-26.6,4c-8.3,4.9-13.2,11.8-18,21.2c-33.1,65.6-31.5,73.6-28.8,77.9
		c0.3,0.5,3.3,5.3,7.2,5.1c8-0.5,10-21.8,22.8-47.5c4.3-8.8,16.1-32.5,23.4-30.4c8.3,2.4,10.3,38.1,6.5,69.4
		c-8.8,69.9-48.9,128.5-49,128.7c-1,2.9-2.2,8.3,0,11c3.3,4.1,12.4-0.3,16.2-2.1c21.7-10.5,51.3-83,61.6-109.2"/>
	<path class="st2" d="M224.2,264.6c5.4-1,15.8-1.6,26,4.5c8.4,4.9,13.4,12.1,18,21.2c33.1,65.6,31.4,73.6,28.8,77.9
		c-0.3,0.5-3.3,5.3-7.2,5.1c-8-0.5-10-21.8-22.8-47.5c-4.3-8.8-16.1-32.5-23.4-30.4c-8.3,2.4-10.3,38.1-6.5,69.4
		c8.8,69.9,48.9,128.5,49,128.7c1,2.9,2.2,8.3,0,11c-3.3,4.1-12.4-0.3-16.2-2.1c-21.7-10.5-51.3-83-61.6-109.2"/>
	<rect x="189.8" y="264.6" class="st2" width="37.1" height="129"/>
</g>
<g>
	<path class="st3" d="M464.5,324.2c-5.7-1.1-21.3,0.8-32.5,7c-8.8,4.9-13.9,11.8-18.9,21.2c-34.7,65.6-33,73.6-30.3,77.9
		c0.3,0.5,3.5,5.3,7.5,5.1c8.4-0.5,10.5-21.8,23.7-47.5c4.5-8.8,16.9-32.5,24.5-30.4c8.6,2.4,10.8,38.1,6.8,69.4
		c-9.2,69.9-51.3,128.5-51.3,128.7c-1,2.9-2.2,8.3,0,11c3.3,4.1,13.1-0.3,17-2.1c22.8-10.5,52.4-78,63.1-104.3"/>
	<path class="st3" d="M486.5,325.8c5.9-1,19.6-1,30.6,5.3c9.1,4.9,14.3,12.1,19.3,21.2c35.5,65.6,33.6,73.6,30.7,77.9
		c-0.3,0.5-3.7,5.3-7.8,5.1c-8.6-0.5-10.7-21.8-24.4-47.5c-4.6-8.8-17.2-32.5-25-30.4c-8.9,2.4-11.1,38.1-7,69.4
		c9.4,69.9,52.4,128.5,52.5,128.7c1,2.9,2.4,8.3,0,11c-3.5,4.1-13.4-0.3-17.4-2.1c-23.2-10.5-52.7-77.9-63.9-104"/>
	<rect x="462" y="325.3" class="st4" width="26.4" height="133.4"/>
	<path class="st3" d="M501.5,299c0,17.2-11.1,31-25.2,31c-8.9,0-15.3-6.4-16.6-7.8c-0.8-0.8-8.8-9.9-8.4-23.2
		c0.3-14.6,10.2-31,25.2-31C490.3,268,501.5,281.9,501.5,299z"/>
	<path class="st5" d="M141.5,299c0,17.2-11.1,31-25.2,31c-8.9,0-15.3-6.4-16.6-7.8c-0.8-0.8-8.8-9.9-8.4-23.2
		c0.3-14.6,10.2-31,25.2-31C130.2,268,141.5,281.9,141.5,299z"/>
	<path class="st5" d="M101.5,327.9c-5.6-1.1-16.1-2.2-26.6,4c-8.3,4.9-13.2,11.8-18,21.2c-33.1,65.6-31.5,73.6-28.8,77.9
		c0.3,0.5,3.3,5.3,7.2,5.1c8-0.5,10-21.8,22.8-47.5c4.3-8.8,16.1-32.5,23.4-30.4c8.3,2.4,10.3,38.1,6.5,69.4
		c-8.8,69.9-48.9,128.5-49,128.7c-1,2.9-2.2,8.3,0,11c3.3,4.1,12.4-0.3,16.2-2.1c21.7-10.5,51.3-83,61.6-109.2"/>
	<path class="st5" d="M132.7,327.4c5.4-1,15.8-1.6,26,4.5c8.4,4.9,13.4,12.1,18,21.2c33.1,65.6,31.4,73.6,28.8,77.9
		c-0.3,0.5-3.3,5.3-7.2,5.1c-8-0.5-10-21.8-22.8-47.5c-4.3-8.8-16.1-32.5-23.4-30.4c-8.3,2.4-10.3,38.1-6.5,69.4
		c8.8,69.9,48.9,128.5,49,128.7c1,2.9,2.2,8.3,0,11c-3.3,4.1-12.4-0.3-16.2-2.1c-21.7-10.5-51.3-83-61.6-109.2"/>
	<rect x="98.3" y="327.4" class="st5" width="37.1" height="129"/>
	<path class="st6" d="M321.4,299c0,17.2-11.1,31-25.2,31c-8.9,0-15.3-6.4-16.6-7.8c-0.8-0.8-8.8-9.9-8.4-23.2
		c0.3-14.6,10.2-31,25.2-31C310.3,268,321.4,281.9,321.4,299z"/>
	<path class="st6" d="M281.6,327.9c-5.6-1.1-16.1-2.2-26.6,4c-8.3,4.9-13.2,11.8-18,21.2c-33.1,65.6-31.5,73.6-28.8,77.9
		c0.3,0.5,3.3,5.3,7.2,5.1c8-0.5,10-21.8,22.8-47.5c4.3-8.8,16.1-32.5,23.4-30.4c8.3,2.4,10.3,38.1,6.5,69.4
		c-8.8,69.9-48.9,128.5-49,128.7c-1,2.9-2.2,8.3,0,11c3.3,4.1,12.4-0.3,16.2-2.1c21.7-10.5,51.3-83,61.6-109.2"/>
	<path class="st6" d="M312.8,327.4c5.4-1,15.8-1.6,26,4.5c8.4,4.9,13.4,12.1,18,21.2c33.1,65.6,31.4,73.6,28.8,77.9
		c-0.3,0.5-3.3,5.3-7.2,5.1c-8-0.5-10-21.8-22.8-47.5c-4.3-8.8-16.1-32.5-23.4-30.4c-8.3,2.4-10.3,38.1-6.5,69.4
		c8.8,69.9,48.9,128.5,49,128.7c1,2.9,2.2,8.3,0,11c-3.3,4.1-12.4-0.3-16.2-2.1c-21.7-10.5-51.3-83-61.6-109.2"/>
	<rect x="278.3" y="327.4" class="st6" width="37.1" height="129"/>
</g>
</svg>
