<?xml version="1.0" encoding="utf-8"?>
<!-- Generator: Adobe Illustrator 24.3.0, SVG Export Plug-In . SVG Version: 6.00 Build 0)  -->
<svg version="1.1" id="Layer_1" xmlns="http://www.w3.org/2000/svg" xmlns:xlink="http://www.w3.org/1999/xlink" x="0px" y="0px"
	 viewBox="0 0 595.3 568.9" style="enable-background:new 0 0 595.3 568.9;" xml:space="preserve">
<style type="text/css">
	.st0{fill:#E90006;stroke:#E90006;stroke-miterlimit:10;}
	.st1{fill:#E90006;stroke:#565757;stroke-miterlimit:10;}
</style>
<g id="_x31_6:12_Rectangle">
</g>
<g id="_x31_6:12_Rectangle_1_">
</g>
<path class="st0" d="M304.7,136.1C269.2,75.3,197.9,48,137.3,68.4C57.7,95.3,33.8,191.9,52.5,248.2c13.2,39.6,44.8,51.4,104.6,99.1
	c64.9,51.8,110.8,104.3,141,143.3"/>
<path class="st0" d="M302.7,136.1c35-56.8,99.8-83.7,155.2-67.7c78.3,22.7,104,121.9,84.8,179.8c-13.2,39.7-45,51.4-104.6,99.1
	c-64.9,52-110.4,104.7-139.9,143.3"/>
<path class="st1" d="M138,423.4"/>
<rect x="293.9" y="449.2" class="st0" width="8.5" height="35.4"/>
</svg>
