<?xml version="1.0" encoding="utf-8"?>
<!-- Generator: Adobe Illustrator 24.3.0, SVG Export Plug-In . SVG Version: 6.00 Build 0)  -->
<svg version="1.1" id="Layer_1" xmlns="http://www.w3.org/2000/svg" xmlns:xlink="http://www.w3.org/1999/xlink" x="0px" y="0px"
	 viewBox="0 0 595.3 568.9" style="enable-background:new 0 0 595.3 568.9;" xml:space="preserve">
<style type="text/css">
	.st0{fill:#565757;stroke:#565757;stroke-miterlimit:10;}
</style>
<g id="_x31_6:12_Rectangle">
</g>
<path class="st0" d="M335.4,67.7c0,27.7-21.3,50.2-47.6,50.2c-17,0-29.1-10.3-31.5-12.6c-1.5-1.4-16.5-15.9-16.1-37.6
	c0.5-23.8,19.4-50.2,47.6-50.2C314.1,17.5,335.4,39.9,335.4,67.7z"/>
<path class="st0" d="M259.7,114.1c-10.5-1.8-30.6-3.6-50.6,6.4c-15.8,7.9-25.2,19-34.2,34.2c-62.9,105.9-59.7,118.9-54.7,125.8
	c0.7,0.9,6.4,8.5,13.7,8.2c15.2-0.7,19-35.2,43.1-76.6c8.2-14.1,30.6-52.5,44.4-49.2c15.7,3.8,19.7,61.5,12.3,112.1
	c-16.6,112.9-92.9,207.7-93,207.8c-1.7,4.7-4.1,13.3,0,17.8c6.2,6.7,23.6-0.4,30.8-3.4c41.2-17,97.4-134.1,116.9-176.4"/>
<path class="st0" d="M318.9,113.3c10.4-1.5,29.9-2.7,49.3,7.2c16,8.1,25.4,19.5,34.2,34.2C465.2,260.6,462,273.6,457,280.4
	c-0.7,0.9-6.4,8.5-13.7,8.2c-15.2-0.7-19-35.2-43.1-76.6c-8.2-14.1-30.6-52.5-44.4-49.2c-15.7,3.8-19.7,61.5-12.3,112.1
	c16.6,112.9,92.9,207.7,93,207.8c1.7,4.7,4.1,13.3,0,17.8c-6.2,6.7-23.6-0.4-30.8-3.4c-41.2-17-97.4-134.1-116.9-176.4"/>
<rect x="253.5" y="113.3" class="st0" width="70.4" height="208.5"/>
</svg>
